<?xml version="1.0" standalone="no"?>
<!DOCTYPE svg PUBLIC "-//W3C//DTD SVG 20010904//EN"
 "http://www.w3.org/TR/2001/REC-SVG-20010904/DTD/svg10.dtd">
<svg version="1.0" xmlns="http://www.w3.org/2000/svg"
 width="2560.000000pt" height="641.000000pt" viewBox="0 0 2560.000000 641.000000"
 preserveAspectRatio="xMidYMid meet">

<g transform="translate(0.000000,641.000000) scale(0.100000,-0.100000)"
fill="#FFFFFF" stroke="none">
<path d="M5790 3205 c0 -1423 3 -2145 10 -2145 7 0 10 722 10 2145 0 1423 -3
2145 -10 2145 -7 0 -10 -722 -10 -2145z"/>
<path d="M12630 3210 c0 -2133 0 -2140 20 -2140 20 0 20 7 20 2140 0 2133 0
2140 -20 2140 -20 0 -20 -7 -20 -2140z"/>
<path d="M17480 3210 c0 -1896 2 -2140 15 -2140 13 0 15 244 15 2140 0 1896
-2 2140 -15 2140 -13 0 -15 -244 -15 -2140z"/>
<path d="M21467 5341 c-192 -41 -299 -229 -240 -420 14 -44 31 -69 81 -118 35
-35 68 -63 74 -63 6 0 19 -7 28 -15 8 -8 58 -40 110 -71 155 -93 217 -178 190
-258 -40 -123 -215 -142 -371 -39 -36 23 -71 43 -77 43 -6 0 -20 -10 -32 -22
-15 -17 -20 -35 -20 -78 0 -48 4 -60 28 -82 63 -60 182 -98 303 -98 148 0 242
49 317 163 25 39 27 49 27 157 0 105 -2 119 -27 166 -34 64 -127 150 -215 199
-77 43 -179 111 -211 141 -39 36 -53 108 -32 156 6 13 30 34 53 47 57 33 159
33 237 0 30 -12 62 -28 71 -36 21 -18 54 -17 73 3 11 11 16 35 16 79 0 73 -9
83 -110 124 -60 24 -206 36 -273 22z"/>
<path d="M3050 5334 c-14 -2 -83 -11 -155 -20 -203 -25 -403 -82 -610 -175
-60 -26 -261 -143 -316 -183 -32 -23 -67 -48 -80 -56 -40 -27 -164 -137 -232
-205 -42 -43 -71 -76 -179 -205 -16 -19 -86 -122 -112 -164 -124 -201 -222
-442 -271 -661 -81 -366 -64 -789 46 -1115 67 -201 72 -212 156 -370 60 -114
73 -135 137 -223 270 -372 587 -616 1016 -779 405 -155 911 -170 1360 -40 36
10 79 24 95 31 17 7 59 24 95 38 84 33 194 86 245 117 22 14 54 33 72 42 18 8
37 22 44 30 6 8 15 14 20 14 11 0 170 120 223 169 138 126 305 316 373 426
104 167 193 340 218 425 4 14 13 39 20 55 22 54 64 208 87 320 20 99 23 139
22 385 0 261 -1 282 -27 405 -26 125 -53 222 -97 349 -21 62 -131 292 -160
336 -10 14 -39 59 -66 100 -119 182 -332 410 -479 513 -22 16 -60 44 -85 63
-25 19 -52 37 -60 41 -8 3 -26 14 -40 23 -28 19 -149 86 -195 107 -16 8 -37
18 -46 23 -8 4 -44 19 -80 33 -262 101 -486 145 -764 152 -82 2 -161 2 -175
-1z m430 -50 c173 -24 357 -74 515 -139 80 -32 254 -122 310 -160 16 -11 37
-24 46 -30 140 -85 402 -327 499 -459 19 -26 47 -62 63 -81 15 -18 27 -35 27
-38 0 -3 17 -32 38 -64 34 -50 87 -149 153 -283 28 -57 95 -266 122 -385 62
-263 63 -635 1 -900 -98 -427 -279 -753 -584 -1056 -118 -117 -156 -149 -305
-251 -66 -46 -259 -158 -271 -158 -2 0 -27 -11 -56 -24 -379 -173 -896 -222
-1315 -126 -142 33 -379 116 -459 161 -18 10 -61 32 -95 50 -98 51 -317 203
-364 253 -5 6 -26 25 -45 41 -66 57 -195 200 -265 295 -180 243 -280 454 -365
775 -37 144 -64 404 -56 550 11 218 35 357 99 570 21 73 74 213 86 230 4 6 14
26 22 45 32 83 197 352 235 385 7 6 33 37 60 70 156 196 424 405 673 526 185
89 216 102 396 153 242 69 563 88 835 50z"/>
<path d="M3085 5220 c-4 -7 -22 -9 -51 -4 -61 9 -107 -2 -142 -34 -40 -36 -52
-62 -52 -115 0 -64 16 -99 57 -127 30 -21 48 -25 100 -24 56 1 67 4 93 29 17
16 30 35 30 43 0 9 -8 5 -20 -11 -29 -36 -83 -50 -126 -32 -27 11 -35 22 -48
66 -20 66 -20 87 -1 133 11 26 26 42 51 52 39 16 59 10 106 -33 l26 -25 -5 43
c-7 50 -8 54 -18 39z"/>
<path d="M3255 5210 c-45 -18 -85 -83 -85 -138 0 -44 32 -108 65 -131 43 -29
134 -29 181 0 36 22 74 90 74 131 0 41 -43 110 -80 130 -36 19 -119 23 -155 8z
m129 -31 c58 -68 14 -249 -61 -249 -8 0 -28 13 -44 29 -26 26 -29 36 -29 91 0
134 72 203 134 129z"/>
<path d="M2688 5166 c-64 -14 -85 -26 -45 -26 22 0 27 -5 33 -37 3 -21 15 -73
26 -116 11 -44 18 -88 15 -98 -5 -18 -2 -19 41 -13 26 4 56 10 67 15 19 7 19
8 -2 8 -25 1 -44 50 -68 176 -15 74 -14 81 2 92 21 16 9 16 -69 -1z"/>
<path d="M3683 5155 c13 -12 12 -22 -3 -77 -20 -70 -51 -156 -64 -176 -4 -7
-15 -11 -23 -8 -8 3 -11 1 -8 -4 3 -6 12 -10 19 -10 8 0 47 -11 89 -25 101
-33 160 -16 196 55 29 56 32 86 16 128 -21 50 -58 77 -151 108 -87 28 -90 29
-71 9z m133 -58 c36 -31 35 -95 -1 -167 -29 -57 -64 -78 -102 -61 -19 9 -21
14 -14 33 17 42 61 189 61 204 0 21 25 17 56 -9z"/>
<path d="M2533 5127 c-18 -7 -38 -18 -45 -25 -11 -11 -10 -12 2 -7 24 9 45
-15 68 -78 12 -33 22 -61 22 -64 0 -2 -15 4 -32 15 -150 91 -158 94 -215 75
-38 -13 -43 -17 -27 -23 25 -10 37 -26 54 -70 7 -19 24 -59 37 -88 28 -63 29
-88 6 -101 -31 -18 3 -12 48 9 30 13 37 20 23 20 -27 0 -37 13 -62 75 -11 28
-27 67 -36 89 l-17 38 88 -48 c139 -75 157 -85 171 -96 27 -23 22 4 -22 115
-48 120 -54 145 -34 165 14 14 13 14 -29 -1z"/>
<path d="M4017 5031 c2 -10 -7 -40 -20 -67 -14 -27 -38 -77 -53 -111 -21 -47
-33 -63 -49 -64 -12 0 4 -12 40 -29 65 -31 90 -38 60 -17 -17 14 -17 15 2 53
11 21 37 75 59 119 31 64 43 79 59 77 23 -3 -16 21 -71 44 -30 12 -32 12 -27
-5z"/>
<path d="M2208 4974 c-3 -13 -17 -23 -34 -27 -72 -15 -133 -88 -134 -158 0
-68 60 -142 125 -155 38 -7 106 15 139 44 34 31 60 102 38 102 -5 0 -13 -16
-18 -36 -17 -69 -101 -94 -149 -45 -83 84 -98 149 -46 202 33 33 56 36 108 14
48 -20 48 -19 21 14 -12 15 -28 37 -34 47 -10 17 -11 17 -16 -2z"/>
<path d="M4339 4837 c-32 -49 -32 -51 -8 -34 30 21 42 21 69 -1 l22 -17 -72
-90 c-85 -107 -98 -119 -117 -103 -10 8 -12 8 -8 -3 3 -8 26 -27 50 -44 25
-16 45 -33 45 -37 0 -5 5 -8 12 -8 9 0 9 3 0 12 -18 18 -15 32 13 64 14 16 29
34 33 39 48 65 98 125 103 125 18 0 41 -54 35 -84 l-6 -31 25 28 c14 15 25 32
25 37 0 5 -24 28 -52 51 -29 22 -62 48 -73 57 -11 10 -34 27 -51 39 l-30 22
-15 -22z"/>
<path d="M3218 4829 c-21 -12 -24 -49 -6 -67 18 -18 56 -14 68 7 14 27 13 37
-6 55 -18 18 -32 20 -56 5z"/>
<path d="M3332 4818 c-30 -30 -1 -79 43 -71 33 7 46 50 20 70 -23 16 -47 17
-63 1z"/>
<path d="M3070 4792 c-19 -9 -39 -23 -43 -29 -4 -7 -12 -13 -18 -13 -12 0
-147 -93 -179 -124 -73 -70 -101 -133 -108 -242 -7 -130 42 -265 164 -444 60
-89 60 -88 73 -252 2 -19 37 -5 66 26 50 53 55 156 14 293 -15 50 -11 58 24
42 16 -7 28 -23 32 -40 3 -16 8 -42 11 -59 3 -16 10 -30 15 -30 5 0 9 -29 9
-65 0 -63 -1 -67 -30 -83 -59 -33 -22 -85 86 -122 134 -46 280 3 205 68 -20
18 -35 89 -23 109 4 6 23 13 42 15 29 2 36 7 38 28 5 43 32 91 58 102 27 13
31 39 13 101 -12 46 -4 77 20 77 10 0 35 7 55 15 41 17 39 29 -9 74 -14 13
-25 28 -25 33 0 10 -41 61 -116 145 -16 17 -51 56 -77 86 -33 38 -58 57 -80
61 -58 12 -86 48 -109 139 -29 116 -38 123 -108 89z m58 -41 c14 -8 34 -129
23 -135 -3 -2 -17 -6 -31 -9 -46 -11 -142 -69 -178 -108 -43 -45 -71 -109 -71
-165 -1 -45 24 -130 45 -155 8 -8 14 -20 14 -26 0 -6 6 -16 14 -22 8 -6 19
-31 25 -55 6 -23 21 -56 33 -72 20 -24 24 -43 26 -125 4 -90 2 -98 -21 -124
l-24 -28 -6 64 c-7 74 -52 171 -110 236 -78 88 -124 243 -114 380 10 128 95
231 262 319 68 35 90 40 113 25z m132 -196 c14 -8 32 -17 40 -21 16 -8 25 -17
130 -134 74 -82 88 -103 66 -94 -8 3 -18 15 -21 26 -8 23 -48 21 -53 -3 -2
-10 17 -25 55 -44 80 -40 113 -66 113 -87 0 -15 -8 -18 -43 -18 -24 0 -48 5
-55 12 -17 17 -112 14 -149 -6 -38 -19 -61 -12 -69 20 -16 62 -47 52 -148 -48
-32 -32 -63 -58 -67 -58 -15 0 -81 64 -104 100 -12 20 -28 61 -35 92 -12 55
-12 59 15 115 34 69 72 107 140 139 58 28 146 32 185 9z m-9 -394 c6 -22 9
-51 5 -65 -7 -28 -109 -112 -124 -102 -6 3 -13 22 -17 42 -5 29 -1 44 20 76
30 46 74 87 92 88 7 0 17 -18 24 -39z m237 -3 c7 -7 12 -43 12 -90 0 -63 -3
-78 -15 -78 -9 0 -18 -7 -22 -16 -3 -8 -12 -13 -19 -10 -16 6 -19 -10 -4 -19
7 -4 8 -11 1 -18 -5 -7 -11 -23 -13 -37 -3 -23 -6 -25 -50 -22 l-47 4 9 -34
c6 -18 10 -50 10 -70 0 -25 7 -45 21 -59 20 -20 20 -22 3 -40 -37 -41 -186
-17 -244 41 l-22 22 23 24 c17 18 23 41 29 106 7 81 8 83 46 113 61 48 105 98
111 128 3 15 11 27 17 27 6 0 27 9 46 19 40 23 90 27 108 9z"/>
<path d="M3364 4365 c-7 -41 -3 -49 23 -41 28 9 47 44 32 62 -22 27 -48 17
-55 -21z"/>
<path d="M3400 4125 l-25 -13 28 -11 c38 -15 54 -14 61 4 4 12 0 14 -22 9 -26
-5 -26 -5 -8 10 25 20 2 21 -34 1z"/>
<path d="M3444 4784 c-9 -34 15 -59 49 -50 32 8 42 34 21 57 -26 28 -62 25
-70 -7z"/>
<path d="M2810 4785 c-17 -20 -5 -61 19 -68 25 -6 61 19 61 43 0 35 -57 52
-80 25z"/>
<path d="M3566 4774 c-19 -18 -20 -28 -6 -55 20 -37 80 -15 80 30 0 14 -29 41
-45 41 -7 0 -21 -7 -29 -16z"/>
<path d="M1900 4764 c-8 -9 -46 -45 -85 -81 -38 -36 -62 -62 -52 -59 13 4 28
-5 50 -31 18 -20 41 -46 52 -58 52 -53 68 -76 74 -103 l6 -30 70 64 c38 35 73
64 77 64 4 0 12 8 17 18 7 14 4 28 -15 58 l-25 39 6 -31 c9 -46 -3 -79 -37
-104 l-30 -22 -40 40 c-23 22 -37 45 -34 51 9 15 49 14 64 -1 6 -6 14 -9 18
-6 3 4 -5 17 -18 29 -12 13 -35 39 -50 58 -29 35 -36 35 -17 -1 8 -15 8 -27 0
-46 l-12 -25 -39 41 c-22 23 -40 45 -40 50 0 5 18 21 39 36 38 27 40 27 71 11
35 -18 34 -9 -3 33 -24 26 -28 27 -47 6z"/>
<path d="M2702 4764 c-37 -26 -23 -74 23 -74 43 0 59 44 27 73 -23 21 -22 21
-50 1z"/>
<path d="M3673 4734 c-10 -26 10 -69 33 -72 28 -4 46 20 42 55 -2 23 -8 29
-36 31 -23 2 -34 -2 -39 -14z"/>
<path d="M2594 4732 c-34 -23 -20 -82 19 -82 45 0 62 43 29 73 -20 19 -31 21
-48 9z"/>
<path d="M3798 4699 c-21 -12 -24 -49 -6 -67 19 -19 46 -14 64 13 16 24 16 27
-1 45 -20 22 -32 24 -57 9z"/>
<path d="M2472 4678 c-19 -19 -14 -56 8 -68 43 -23 83 17 60 60 -12 22 -49 27
-68 8z"/>
<path d="M3907 4653 c-14 -4 -17 -13 -15 -41 3 -35 5 -37 38 -37 32 0 35 2 38
34 4 44 -13 57 -61 44z"/>
<path d="M2364 4616 c-11 -30 1 -61 24 -64 30 -4 52 14 52 43 0 34 -64 51 -76
21z"/>
<path d="M4535 4596 c-111 -51 -136 -177 -51 -262 54 -54 146 -58 206 -7 64
53 76 119 36 187 -46 78 -126 113 -191 82z m153 -55 c40 -34 30 -76 -31 -136
-64 -63 -116 -84 -152 -61 -34 22 -40 52 -20 96 15 34 87 99 125 113 29 10 55
6 78 -12z"/>
<path d="M4002 4588 c-21 -21 -14 -58 13 -68 32 -12 52 -4 59 22 11 46 -40 78
-72 46z"/>
<path d="M1656 4525 c-21 -24 -58 -69 -82 -101 l-45 -57 27 -29 c33 -33 37
-32 22 8 -8 24 -8 36 4 57 l14 28 24 -21 c12 -11 26 -20 30 -20 3 0 25 -18 48
-40 22 -22 45 -40 49 -40 4 0 18 -11 31 -25 17 -18 22 -30 16 -47 -4 -12 16 5
45 39 51 63 67 90 32 59 -18 -16 -23 -13 -120 64 -87 69 -100 83 -91 99 12 24
35 33 66 25 31 -8 30 -2 -5 23 l-28 22 -37 -44z"/>
<path d="M2268 4559 c-38 -21 -14 -69 33 -69 32 0 46 28 29 60 -12 22 -35 25
-62 9z"/>
<path d="M4100 4514 c-19 -22 -1 -68 27 -72 31 -5 59 39 43 67 -13 25 -52 28
-70 5z"/>
<path d="M2173 4493 c-21 -8 -16 -61 7 -73 27 -15 60 4 60 33 0 38 -29 56 -67
40z"/>
<path d="M4202 4448 c-17 -17 -15 -53 3 -68 24 -20 65 3 65 34 0 37 -44 58
-68 34z"/>
<path d="M2077 4409 c-28 -39 5 -79 53 -64 27 9 27 60 1 75 -28 15 -38 13 -54
-11z"/>
<path d="M4823 4388 c4 -12 -6 -27 -36 -51 -23 -19 -46 -36 -52 -38 -5 -2 -36
-21 -67 -43 -51 -34 -60 -37 -75 -25 -15 13 -15 12 -3 -11 30 -56 61 -100 71
-100 8 0 8 4 1 13 -6 7 -8 17 -4 22 12 17 80 65 92 65 16 0 3 -77 -17 -109
-24 -38 -21 -88 7 -114 14 -12 21 -18 17 -13 -4 5 4 28 18 52 14 23 25 56 25
72 0 30 1 30 35 21 26 -7 42 -6 64 5 57 30 53 75 -17 181 -51 78 -68 99 -59
73z m61 -104 c12 -31 6 -64 -16 -84 -30 -28 -62 -25 -86 7 l-20 27 47 32 c53
37 67 40 75 18z"/>
<path d="M4282 4359 c-26 -41 14 -83 58 -59 26 14 26 56 1 70 -29 15 -45 12
-59 -11z"/>
<path d="M2008 4343 c-20 -5 -34 -44 -24 -69 4 -10 16 -14 38 -12 29 3 33 7
36 35 3 34 -18 53 -50 46z"/>
<path d="M1460 4260 c-44 -69 -48 -80 -23 -57 19 17 21 16 46 -3 14 -11 28
-20 31 -20 4 0 19 -8 34 -18 15 -11 47 -32 72 -48 53 -34 60 -42 53 -63 -3 -9
5 0 17 19 13 19 31 47 41 62 24 34 24 46 1 25 -16 -15 -22 -13 -84 26 -36 23
-84 53 -106 67 -23 14 -42 34 -44 45 -2 15 -11 7 -38 -35z"/>
<path d="M4360 4271 c-16 -31 4 -63 37 -59 34 4 52 32 37 56 -16 26 -60 28
-74 3z"/>
<path d="M2110 4238 c0 -48 26 -186 45 -238 9 -25 28 -57 43 -73 l27 -28 -52
7 c-55 7 -61 4 -40 -18 6 -7 25 -32 40 -54 63 -94 170 -172 248 -181 48 -6 51
-8 24 -14 -16 -4 -50 -7 -75 -8 l-45 -1 25 -21 c45 -36 135 -77 185 -84 62 -9
69 -13 55 -30 -9 -11 -6 -17 12 -29 33 -21 134 -46 190 -46 51 0 69 -13 41
-29 -16 -8 -13 -12 22 -27 41 -18 76 -19 335 -15 69 1 145 2 170 1 136 -1 180
11 180 49 0 13 9 15 45 13 28 -3 54 1 68 10 12 8 38 18 57 22 19 3 57 17 84
31 27 14 57 25 67 25 20 0 51 36 71 81 9 20 20 29 36 29 37 0 62 18 62 45 0
18 8 27 35 36 40 15 49 32 34 61 -8 14 -8 23 0 31 6 6 11 20 11 32 0 20 5 23
94 59 34 14 37 19 32 41 -5 21 -2 27 19 35 34 13 32 20 -2 11 -20 -5 -28 -14
-28 -29 -1 -27 -22 -49 -57 -57 -22 -6 -28 -4 -28 9 0 9 7 19 15 22 8 4 15 16
15 28 0 12 9 29 19 38 11 10 17 24 15 35 -3 11 5 28 20 42 33 31 33 39 1 37
-17 -1 -25 -7 -25 -19 0 -10 -5 -28 -11 -39 -9 -17 -13 -18 -20 -7 -6 10 -9 6
-9 -14 0 -16 -10 -38 -24 -52 -13 -13 -26 -30 -29 -37 -2 -7 -14 7 -25 32 -23
49 -20 65 9 50 31 -17 35 15 9 62 -26 46 -18 64 23 49 24 -9 27 -8 33 14 3 13
1 39 -5 58 -12 36 -6 67 12 67 6 0 26 -14 43 -31 l32 -31 17 32 c16 31 17 31
36 14 16 -14 19 -26 14 -55 -4 -23 -2 -45 7 -59 12 -20 9 -25 -32 -60 -46 -41
-46 -42 15 -54 l30 -6 -23 20 -24 20 25 9 c13 5 27 17 31 26 9 25 7 63 -4 70
-5 3 -10 23 -10 44 0 27 -7 44 -26 62 l-26 24 -19 -24 c-18 -22 -21 -23 -37
-7 -48 42 -110 -2 -84 -59 18 -38 15 -43 -23 -51 -30 -5 -35 -10 -35 -34 0
-15 9 -39 21 -54 11 -14 16 -26 10 -26 -5 0 -12 4 -16 10 -9 14 -91 -72 -109
-114 -10 -25 -26 -41 -49 -51 -19 -8 -37 -22 -41 -31 -5 -13 -9 -14 -21 -4
-12 10 -21 10 -40 2 -21 -10 -25 -18 -25 -57 0 -40 -2 -45 -21 -42 -18 2 -25
-7 -37 -42 l-15 -44 -19 26 c-28 39 -61 35 -87 -8 -23 -40 -69 -64 -83 -43 -4
7 -9 17 -11 23 -2 5 -23 -3 -46 -18 -24 -16 -49 -26 -56 -23 -15 6 -50 -30
-60 -61 -7 -24 -20 -30 -30 -13 -9 15 -21 12 -52 -13 -21 -17 -40 -22 -77 -21
-26 1 -51 5 -55 10 -3 5 -17 17 -31 26 -14 10 -43 30 -65 45 -41 29 -152 69
-162 59 -8 -8 43 -75 91 -118 24 -22 35 -38 26 -38 -21 0 -29 8 -73 62 -39 49
-51 61 -89 90 -13 10 -35 28 -51 41 -38 32 -167 100 -175 93 -3 -4 -1 -29 4
-56 6 -28 10 -50 8 -50 -1 0 -17 30 -34 68 -24 48 -57 92 -119 155 -98 99
-121 108 -121 47 0 -22 -4 -40 -10 -40 -5 0 -10 19 -10 42 0 70 -20 170 -47
233 -41 96 -84 132 -97 80 -4 -14 -10 -25 -14 -25 -5 0 -18 11 -30 25 -29 34
-42 31 -42 -7z m143 -35 c40 -64 78 -205 59 -217 -6 -3 -22 25 -37 64 -15 38
-37 86 -51 105 -24 35 -30 65 -17 78 13 13 23 7 46 -30z m-34 -88 c23 -48 51
-134 51 -157 0 -48 -56 -22 -89 42 -12 23 -26 74 -31 114 -15 113 -14 115 19
76 17 -19 39 -53 50 -75z m1839 -189 c3 -23 0 -28 -13 -22 -9 3 -19 6 -21 6
-2 0 -4 12 -4 26 0 37 34 28 38 -10z m-1585 -58 c52 -52 77 -87 90 -122 9 -27
15 -51 12 -54 -3 -3 -22 0 -42 7 -41 12 -92 71 -132 148 -22 44 -28 93 -11 93
6 0 43 -33 83 -72z m-209 -28 c14 -5 30 -18 36 -30 6 -11 20 -20 30 -20 16 0
20 -7 20 -34 0 -49 20 -62 72 -47 37 12 43 11 55 -4 19 -27 5 -38 -37 -31 -71
11 -131 45 -191 107 -33 34 -59 66 -59 71 0 10 28 6 74 -12z m1703 -23 c9 -6
26 -4 52 7 36 14 42 14 55 0 14 -14 14 -18 -1 -41 -16 -24 -16 -26 1 -35 26
-15 3 -35 -49 -43 -36 -5 -45 -10 -45 -26 0 -12 7 -19 20 -19 24 0 26 -13 5
-30 -12 -10 -21 -10 -44 0 -35 14 -54 6 -46 -21 8 -25 -21 -25 -54 0 l-24 18
24 17 c13 9 31 16 41 16 10 0 18 5 18 10 0 6 -9 10 -21 10 -39 0 -13 25 32 30
30 3 43 9 41 19 -1 7 5 19 15 26 35 26 4 27 -46 2 -27 -14 -58 -23 -68 -21
-14 4 -21 -3 -28 -28 -6 -18 -20 -37 -32 -43 -13 -5 -23 -15 -23 -22 0 -17
-20 -27 -32 -15 -6 6 -8 26 -4 47 6 29 11 35 24 30 42 -18 47 -12 47 49 0 62
12 78 38 51 25 -25 50 -19 45 10 -5 22 -3 24 21 18 14 -3 32 -10 38 -16z
m-1259 -111 c53 -27 124 -88 153 -132 24 -37 24 -44 -1 -44 -15 0 -20 7 -20
29 0 51 -51 80 -80 46 -19 -22 -34 -18 -60 15 -30 40 -62 110 -49 110 5 0 31
-11 57 -24z m972 -36 c0 -5 -4 -10 -10 -10 -5 0 -10 5 -10 10 0 6 5 10 10 10
6 0 10 -4 10 -10z m-113 -82 c14 8 23 8 31 0 20 -20 13 -46 -18 -65 -35 -21
-36 -24 -10 -41 43 -26 16 -61 -33 -43 -46 18 -81 -15 -41 -37 9 -5 14 -14 10
-20 -7 -11 -23 -7 -83 21 -25 11 -53 -4 -53 -29 0 -19 -15 -18 -36 4 -17 16
-17 17 4 20 19 3 20 6 11 24 -11 20 -9 21 35 16 38 -5 44 -3 35 8 -16 20 -2
34 37 34 19 0 34 5 34 10 0 6 11 16 25 22 26 12 36 34 10 24 -9 -3 -15 0 -15
10 0 11 -10 6 -31 -15 -17 -17 -41 -31 -53 -31 -12 0 -27 -5 -34 -12 -23 -23
-25 20 -2 52 17 24 25 28 35 20 10 -8 21 -1 46 30 l34 42 21 -27 c18 -22 25
-25 41 -17z m-938 5 c22 -10 41 -21 41 -25 0 -3 -24 -12 -54 -19 -47 -10 -62
-9 -108 5 -29 10 -64 25 -78 34 l-25 16 30 6 c51 11 150 2 194 -17z m372 -7
c30 -13 71 -40 92 -60 36 -36 48 -66 27 -66 -24 0 -89 42 -138 88 -74 70 -70
78 19 38z m880 -6 c5 0 9 -14 9 -31 0 -27 -3 -30 -26 -27 -35 4 -53 31 -34 53
7 9 20 13 27 10 8 -3 19 -5 24 -5z m-89 -40 c4 -27 3 -29 -10 -16 -8 8 -12 22
-9 30 9 23 14 20 19 -14z m-132 5 c0 -8 -7 -15 -15 -15 -9 0 -12 6 -9 15 4 8
10 15 15 15 5 0 9 -7 9 -15z m98 -42 c3 -22 -28 -40 -48 -28 -12 7 -13 38 -3
49 15 14 48 1 51 -21z m-885 -4 c37 -10 38 -11 22 -29 -32 -36 -151 -35 -240
1 l-30 12 45 12 c57 16 153 18 203 4z m777 -25 c0 -15 -6 -24 -15 -24 -15 0
-21 40 -9 53 12 11 24 -3 24 -29z m-316 11 c4 -11 -2 -15 -21 -15 -21 0 -24 2
-13 15 7 8 16 15 20 15 4 0 10 -7 14 -15z m-220 -84 c3 -5 -2 -15 -11 -22 -18
-16 -185 -19 -218 -5 -18 8 -15 10 20 22 46 14 201 18 209 5z"/>
<path d="M1921 4244 c-25 -18 -28 -59 -5 -68 31 -12 55 -6 63 17 17 43 -21 77
-58 51z"/>
<path d="M4442 4188 c-35 -35 15 -99 53 -68 30 25 12 80 -25 80 -9 0 -21 -5
-28 -12z"/>
<path d="M1840 4146 c-28 -34 11 -93 47 -70 32 20 39 41 19 63 -22 24 -49 27
-66 7z"/>
<path d="M4512 4091 c-18 -11 -11 -61 11 -75 24 -15 51 4 55 39 4 28 -10 45
-38 45 -8 0 -21 -4 -28 -9z"/>
<path d="M1789 4053 c-21 -5 -29 -32 -18 -62 13 -33 60 -26 74 12 8 24 6 31
-10 43 -10 8 -21 13 -24 13 -3 -1 -13 -3 -22 -6z"/>
<path d="M5030 4039 c0 -27 4 -25 -212 -112 -24 -10 -30 -8 -43 8 -18 23 -17
18 12 -45 11 -25 24 -54 28 -65 l8 -20 5 20 c6 30 12 34 129 81 93 38 110 42
119 29 6 -8 14 -15 16 -15 6 0 -31 95 -49 125 -12 19 -12 19 -13 -6z"/>
<path d="M1594 4016 c14 -19 26 -40 26 -46 0 -15 -39 -90 -47 -90 -4 0 -25 9
-47 19 -191 89 -180 82 -177 121 1 15 -42 -63 -60 -110 -10 -23 -9 -23 8 -7
17 15 21 15 58 -3 22 -11 75 -35 117 -54 46 -21 78 -42 80 -52 2 -10 15 9 32
47 16 35 39 86 52 112 27 56 28 57 13 57 -6 0 -22 9 -36 20 -39 31 -48 24 -19
-14z"/>
<path d="M4570 3986 c-28 -35 11 -93 48 -70 35 22 22 84 -18 84 -10 0 -23 -7
-30 -14z"/>
<path d="M1722 3948 c-17 -17 -15 -67 3 -74 8 -4 26 -3 40 0 20 5 25 13 25 36
0 40 -42 64 -68 38z"/>
<path d="M4622 3878 c-18 -18 -15 -42 9 -64 22 -20 43 -13 63 19 23 36 -41 76
-72 45z"/>
<path d="M5105 3829 c-6 -24 -16 -29 -93 -49 -132 -34 -153 -36 -169 -14 -13
17 -14 16 -7 -11 14 -56 22 -80 23 -64 2 27 33 46 95 59 33 7 70 17 83 23 13
6 26 8 29 5 4 -5 -48 -82 -111 -163 -30 -39 -65 -89 -65 -93 0 -6 59 8 147 35
49 15 97 24 119 21 35 -4 36 -4 30 26 -8 39 -26 58 -26 28 0 -17 -11 -25 -66
-42 -36 -11 -68 -20 -70 -20 -12 0 3 26 59 101 l63 85 -17 50 c-16 46 -17 47
-24 23z"/>
<path d="M1664 3826 c-3 -9 -3 -27 0 -41 12 -49 81 -24 74 27 -2 18 -10 24
-36 26 -22 2 -34 -2 -38 -12z"/>
<path d="M1293 3791 c-45 -21 -76 -67 -88 -133 -15 -82 66 -168 159 -168 72 0
120 40 141 119 24 92 -12 160 -97 186 -64 19 -64 19 -115 -4z m100 -71 c76
-24 112 -58 102 -100 -10 -42 -33 -52 -111 -48 -57 3 -79 9 -112 31 -35 23
-42 33 -42 60 0 37 7 49 35 65 29 16 54 15 128 -8z"/>
<path d="M4664 3755 c-8 -34 1 -55 25 -55 34 0 51 11 51 34 0 48 -65 66 -76
21z"/>
<path d="M1632 3728 c-17 -17 -15 -67 3 -74 8 -4 26 -3 40 0 30 8 34 45 7 69
-22 20 -34 21 -50 5z"/>
<path d="M4705 3650 c-15 -17 -16 -24 -7 -45 16 -35 58 -34 74 1 11 23 10 29
-11 45 -29 24 -34 24 -56 -1z"/>
<path d="M2070 3574 c-110 -158 -180 -252 -212 -286 -21 -23 -32 -42 -27 -50
4 -7 10 -51 14 -98 6 -77 5 -87 -14 -111 -18 -23 -19 -28 -6 -39 11 -9 15 -34
15 -91 l0 -79 -33 0 c-40 0 -51 -8 -36 -27 9 -9 8 -13 0 -13 -12 0 -15 -42 -4
-53 3 -4 15 0 25 10 17 15 18 13 18 -75 0 -91 -12 -128 -24 -72 -9 46 -28 37
-24 -12 l3 -43 345 -2 c190 -1 336 1 325 4 -31 8 -34 22 -28 105 4 56 3 78 -6
78 -6 0 -11 8 -12 18 0 14 -3 13 -16 -5 -17 -25 -52 -30 -71 -11 -9 9 -12 -6
-12 -70 0 -48 -4 -82 -10 -82 -5 0 -10 11 -10 24 0 14 -4 27 -9 30 -5 3 -11
16 -14 28 -2 13 -8 31 -12 41 -5 12 -3 17 9 17 23 0 20 21 -4 27 -23 6 -27 23
-5 23 23 0 18 14 -9 26 -17 8 -28 8 -35 1 -21 -21 -41 1 -41 48 0 38 -3 45
-19 45 -16 0 -20 -8 -23 -42 -3 -42 -4 -43 -42 -46 -72 -6 -86 2 -86 53 0 47
-16 59 -39 31 -10 -12 -8 -17 9 -26 22 -12 22 -12 -5 -26 -15 -8 -33 -14 -40
-14 -13 0 -28 66 -19 82 10 16 24 -3 18 -27 -3 -12 -1 -26 5 -29 7 -5 11 6 11
32 0 29 -7 45 -30 69 -17 17 -27 33 -23 35 4 2 77 2 161 0 147 -3 153 -4 162
-25 l9 -22 0 23 c1 15 7 22 20 22 22 0 33 -41 24 -94 -4 -24 -2 -36 6 -36 6 0
11 7 11 15 0 8 5 15 10 15 6 0 10 -5 10 -10 0 -6 3 -9 8 -9 24 4 42 -3 42 -16
0 -23 17 -18 24 8 12 44 7 54 -34 66 -22 7 -46 9 -52 5 -8 -5 -9 -2 -5 10 4
10 7 20 7 22 0 9 40 3 66 -11 16 -8 37 -15 47 -15 21 0 22 -23 2 -40 -21 -17
-19 -37 4 -50 14 -7 22 -7 27 1 4 8 14 -1 26 -22 10 -19 16 -24 13 -12 -7 24
10 41 18 18 4 -9 18 -13 42 -11 24 1 35 -2 35 -11 0 -7 7 -13 15 -13 8 0 15 5
15 11 0 8 4 8 14 0 12 -10 17 -8 26 9 13 24 30 18 30 -12 0 -14 5 -18 15 -14
20 7 19 2 -7 -44 -28 -48 -37 -50 -44 -10 -8 38 -27 40 -22 3 2 -23 -1 -27
-16 -25 -10 2 -23 -2 -27 -10 -6 -9 -9 -7 -9 8 0 12 -7 27 -15 34 -12 10 -15
10 -15 -4 0 -24 -18 -19 -23 7 -3 16 -5 14 -6 -10 -1 -35 -19 -53 -32 -32 -13
21 -22 3 -15 -28 6 -20 9 -24 16 -13 7 12 12 11 29 -4 21 -19 21 -19 21 2 0
29 33 29 53 0 l16 -23 7 23 c12 42 26 23 19 -26 l-6 -49 57 1 58 1 2 72 c1 39
5 76 8 82 4 6 2 11 -4 11 -6 0 -8 10 -4 28 9 39 19 46 38 27 19 -19 21 -46 4
-63 -16 -16 -19 -53 -5 -80 9 -20 8 -30 -10 -60 -19 -34 -25 -37 -69 -40 -27
-2 -53 -7 -58 -13 -19 -18 490 -17 524 1 12 7 21 7 25 0 3 -5 20 -10 38 -9 18
0 140 -5 273 -12 230 -12 326 -8 279 11 -11 5 -41 9 -66 9 l-46 1 -7 47 c-4
28 -2 51 4 57 16 16 32 -13 26 -46 -7 -37 13 -50 63 -42 41 7 41 7 41 50 0 46
18 70 27 35 5 -19 7 -19 29 -5 34 23 47 9 40 -43 l-6 -45 30 4 c33 5 51 -8 26
-18 -9 -3 -16 -10 -16 -14 0 -13 81 -19 106 -8 23 11 41 44 30 55 -3 4 -6 -2
-6 -11 0 -33 -23 -10 -25 24 -1 19 -6 45 -10 58 -6 17 -4 22 11 22 11 0 26 -4
34 -10 14 -8 29 3 30 22 0 13 -73 39 -92 32 -10 -3 -27 0 -36 8 -16 12 -16 11
-1 -7 21 -25 31 -166 12 -172 -12 -4 -15 21 -13 110 0 26 -4 47 -9 47 -13 0
-25 -45 -16 -60 8 -13 -3 -50 -16 -50 -7 0 -9 27 -7 70 2 39 0 70 -4 70 -5 0
-8 -4 -8 -10 0 -5 -10 -10 -22 -10 -12 0 -29 -7 -39 -16 -24 -22 -53 -11 -44
16 4 11 2 20 -4 20 -6 0 -11 -9 -11 -20 0 -35 -29 -23 -36 15 -12 63 16 115
34 64 8 -19 9 -20 22 -4 14 16 15 16 21 -6 l7 -24 7 23 c6 18 10 20 21 11 11
-9 15 -8 20 5 3 9 10 13 16 10 5 -3 7 -12 4 -20 -3 -8 -2 -14 3 -14 5 0 11 9
14 20 3 11 10 20 15 20 6 0 8 -8 5 -19 -3 -10 0 -21 5 -25 5 -3 13 6 16 20 5
19 11 24 25 19 24 -7 44 18 36 45 -10 32 10 23 28 -12 10 -21 16 -27 16 -15 1
11 9 17 24 17 56 0 66 9 69 64 2 37 7 51 18 51 21 0 29 -173 8 -180 -7 -2 -32
-9 -55 -15 -28 -7 -43 -16 -43 -27 0 -14 2 -14 18 -1 9 8 28 14 41 14 30 -1
41 -26 12 -26 -12 0 -21 -4 -21 -10 0 -5 5 -10 11 -10 6 0 9 -6 6 -12 -2 -7
-13 -12 -23 -10 -18 2 -18 2 1 -13 18 -15 18 -16 2 -44 -9 -16 -18 -40 -18
-53 -1 -16 -3 -18 -6 -5 -2 9 -9 17 -14 17 -9 0 -24 -48 -17 -55 2 -2 123 -7
269 -11 299 -8 281 -13 271 71 -4 37 -7 45 -13 30 -4 -11 -8 -32 -8 -47 -1
-34 -16 -37 -25 -5 -9 34 -7 145 3 151 16 10 32 -21 25 -48 -4 -18 -2 -26 7
-26 10 0 15 16 16 53 4 81 -2 95 -40 99 l-32 3 -3 69 c-2 53 1 72 14 87 16 18
16 20 -1 39 -15 16 -16 31 -11 97 3 43 6 86 6 96 1 9 5 17 11 17 17 0 9 28 -9
32 -10 3 -32 26 -48 51 -16 26 -51 82 -79 125 -27 43 -64 101 -81 128 -18 27
-34 58 -37 69 -3 13 -5 15 -6 4 0 -9 -18 -24 -39 -34 -28 -14 -44 -33 -67 -78
-65 -128 -75 -146 -104 -175 -17 -16 -33 -41 -37 -56 -3 -14 -10 -23 -15 -20
-13 8 -102 141 -136 203 -1 2 -16 -7 -32 -20 -17 -14 -50 -64 -77 -116 -26
-51 -53 -93 -61 -93 -9 0 -13 -9 -11 -27 l3 -28 -199 2 c-173 2 -201 4 -209
18 -8 15 -11 15 -29 -2 -19 -17 -21 -17 -42 8 l-22 25 -27 -20 c-23 -17 -31
-18 -46 -9 -15 10 -20 9 -25 -2 -6 -16 -118 -19 -311 -6 -87 5 -100 8 -103 25
-2 10 -15 30 -28 43 -13 13 -28 41 -34 62 -6 22 -17 52 -25 68 -8 15 -15 35
-15 44 0 9 -11 19 -23 23 -13 3 -29 16 -34 28 -11 22 -11 22 -18 3 -11 -28
-111 -179 -128 -194 -12 -9 -16 -6 -22 16 -3 15 -19 43 -34 62 -16 20 -36 50
-45 66 -19 36 -33 58 -63 106 -13 19 -23 45 -23 58 0 17 -4 21 -19 16 -13 -4
-25 2 -38 18 l-19 24 -44 -63z m90 -121 c24 -65 47 -123 51 -128 4 -6 12 -23
18 -38 l11 -27 -176 0 c-160 0 -175 1 -163 16 8 10 22 14 39 11 37 -8 54 5 44
34 -15 47 -8 76 27 117 32 38 37 40 51 25 9 -8 21 -12 27 -9 17 11 13 44 -5
54 -16 9 -15 12 2 35 10 15 22 27 25 27 4 0 26 -53 49 -117z m24 85 c9 -12 19
-38 22 -58 4 -19 23 -53 42 -74 31 -35 33 -40 18 -51 -19 -14 -21 -46 -4 -63
8 -8 8 -12 1 -12 -6 0 -25 30 -43 67 -25 54 -30 75 -25 105 6 33 4 38 -13 38
-21 0 -32 18 -32 51 0 25 15 24 34 -3z m2178 -132 c29 -48 33 -63 23 -69 -8
-4 -12 -14 -9 -21 3 -8 -3 -16 -15 -19 -12 -3 -21 -12 -21 -21 0 -17 22 -24
85 -28 22 -2 39 -7 37 -13 -2 -8 -320 -10 -329 -2 -1 2 13 35 32 73 19 38 51
105 71 149 l35 80 27 -34 c15 -19 43 -61 64 -95z m-122 100 c0 -8 -13 -24 -28
-34 -24 -17 -27 -26 -24 -59 3 -27 -4 -51 -23 -85 -15 -26 -30 -50 -35 -53
-12 -7 -20 77 -9 97 5 10 16 18 23 18 15 0 26 21 26 47 0 24 40 83 56 83 8 0
14 -6 14 -14z m-1690 -146 c16 -33 30 -66 30 -75 0 -16 35 -56 43 -49 3 3 8 0
13 -7 4 -8 3 -10 -4 -5 -7 4 -12 2 -12 -3 0 -7 -40 -11 -113 -11 -65 0 -117
-4 -123 -10 -8 -8 -15 -6 -24 5 -7 8 -18 15 -25 15 -6 0 -20 10 -31 22 l-19
22 35 -22 c34 -20 38 -20 83 -5 33 11 47 21 47 34 0 10 -4 20 -9 23 -15 9 19
67 37 65 30 -3 35 1 22 16 -10 12 -10 18 0 30 7 8 14 15 16 15 2 0 17 -27 34
-60z m1345 -2 c11 -17 27 -42 35 -54 13 -21 13 -25 -9 -48 -21 -22 -22 -26 -7
-32 9 -3 27 -3 41 0 18 5 27 1 35 -15 7 -12 18 -18 26 -15 10 4 12 2 8 -5 -5
-8 -38 -10 -108 -5 -55 3 -118 6 -138 6 -30 0 -38 4 -38 19 0 14 7 18 28 17
15 -1 32 -4 37 -8 19 -11 55 10 52 31 -5 30 -14 36 -34 20 -9 -8 -14 -9 -12
-4 19 35 49 106 49 115 0 19 15 10 35 -22z m-59 -3 c-8 -33 -47 -97 -54 -90
-6 6 47 115 56 115 2 0 1 -11 -2 -25z m-1648 -162 c6 -9 12 -35 12 -58 0 -28
6 -46 20 -58 19 -16 20 -16 20 7 0 38 12 86 21 86 5 0 9 -13 9 -29 0 -17 5
-33 10 -36 6 -3 10 -1 10 4 0 6 4 11 10 11 5 0 8 -15 5 -35 -6 -52 12 -52 19
0 10 64 22 63 18 -2 -3 -39 -1 -53 7 -49 6 4 11 19 11 33 0 26 25 63 42 63 4
0 8 -7 8 -15 0 -8 9 -15 20 -15 15 0 22 9 27 30 7 38 43 43 43 6 0 -30 43 -62
59 -43 5 7 8 22 5 34 -7 26 25 36 61 20 29 -14 29 -15 11 -58 l-14 -34 -114
-2 c-137 -2 -128 -1 -128 -13 0 -5 8 -10 18 -10 15 -1 15 -2 -2 -15 -20 -15
-20 -15 0 -15 11 0 29 7 40 15 10 8 33 15 51 15 25 0 30 -4 27 -17 -2 -10 0
-25 6 -33 9 -13 12 -13 24 3 7 9 21 17 30 17 9 0 16 5 16 10 0 19 25 10 58
-19 17 -17 32 -37 32 -45 0 -33 19 -14 25 24 9 56 34 49 49 -12 10 -42 32 -34
39 13 3 22 8 44 12 47 9 9 45 -39 45 -60 0 -20 18 -34 30 -22 5 5 10 26 12 47
2 39 24 51 34 20 16 -48 27 -73 34 -73 8 0 25 68 21 83 -1 5 4 7 11 5 7 -3 14
-21 16 -40 2 -27 -3 -42 -21 -62 -27 -29 -57 -35 -57 -11 0 8 -6 15 -14 15 -8
0 -16 -7 -20 -15 -3 -9 -18 -15 -36 -15 -20 0 -30 5 -30 15 0 8 -4 15 -10 15
-5 0 -10 -7 -10 -15 0 -20 -30 -19 -58 1 -21 15 -25 15 -43 -2 -18 -16 -23
-16 -81 -1 -35 9 -79 19 -98 23 -19 3 -54 15 -77 25 -23 11 -51 19 -62 19 -11
0 -46 12 -76 26 -42 20 -59 24 -68 15 -15 -15 -23 -14 -41 5 -9 8 -16 11 -16
5 0 -7 -21 -10 -52 -9 -44 1 -46 2 -15 5 l37 4 0 59 c0 52 -2 59 -17 53 -10
-3 -24 -13 -30 -21 -11 -14 -13 -11 -13 15 0 18 -5 35 -11 39 -7 4 -9 0 -6
-12 18 -59 19 -95 3 -119 -15 -23 -23 -25 -86 -25 l-70 0 1 33 c2 30 2 30 6 5
3 -20 10 -28 24 -28 17 0 19 7 19 64 0 59 -2 64 -20 59 -13 -4 -20 -14 -21
-32 -1 -17 -5 -10 -11 21 -7 32 -16 49 -29 53 -10 4 -19 12 -19 18 0 9 39 11
147 9 123 -3 150 -6 161 -19z m47 7 c-3 -5 -10 -10 -16 -10 -5 0 -9 5 -9 10 0
6 7 10 16 10 8 0 12 -4 9 -10z m2233 -26 c21 -6 21 -7 5 -19 -17 -13 -17 -14
0 -33 15 -16 17 -29 12 -65 -4 -28 -2 -53 5 -67 16 -30 6 -36 -19 -11 -12 12
-25 21 -31 21 -5 0 -10 22 -10 49 0 70 -14 101 -45 101 -25 0 -26 -1 -23 -69
2 -78 -15 -111 -59 -111 -21 0 -23 4 -23 44 0 26 -6 51 -15 60 -13 13 -13 16
0 30 8 8 15 19 15 24 0 9 -53 26 -77 25 -7 0 -13 5 -13 13 0 11 25 14 128 14
70 0 137 -3 150 -6z m-2566 -98 c-4 -33 -13 -61 -19 -64 -15 -4 -18 34 -3 43
16 10 12 52 -5 59 -13 5 -14 10 -4 27 9 18 13 19 25 7 11 -10 12 -28 6 -72z
m1916 32 c6 -17 9 -35 6 -39 -3 -5 -1 -9 4 -9 13 0 42 45 42 65 0 16 26 32 36
22 3 -3 1 -15 -6 -26 -9 -18 -8 -22 7 -28 10 -3 26 -13 36 -21 16 -15 18 -14
24 6 10 38 33 22 48 -33 l9 -30 6 40 7 40 2 -37 c0 -20 6 -40 11 -43 10 -6 15
13 11 53 -1 12 3 22 10 22 7 0 10 -13 7 -35 -3 -24 0 -35 9 -35 9 0 13 16 13
50 0 62 16 65 26 5 3 -25 9 -45 12 -45 11 0 31 36 32 58 0 15 4 21 11 16 8 -4
9 -27 5 -66 -3 -32 -2 -57 2 -54 5 3 22 1 38 -4 25 -7 20 -8 -29 -9 -32 -1
-67 3 -77 9 -13 7 -29 5 -54 -5 -19 -8 -52 -15 -73 -15 -21 0 -60 -11 -87 -24
-27 -13 -56 -22 -64 -19 -7 3 -23 1 -35 -4 -51 -24 -78 -33 -72 -24 10 16 -12
21 -25 6 -17 -21 -36 -19 -58 5 -19 21 -19 21 -25 1 -4 -15 -10 -18 -28 -14
-13 4 -29 13 -35 21 -9 12 -12 11 -23 -2 -16 -19 -71 -22 -71 -4 0 9 -3 9 -12
0 -17 -17 -68 -15 -68 2 0 8 -11 17 -25 20 -27 7 -35 26 -11 26 10 0 14 9 13
26 -3 44 20 39 28 -5 4 -23 11 -41 15 -41 13 0 40 42 40 63 0 32 24 13 34 -26
12 -48 29 -47 51 3 21 48 39 47 43 -1 2 -19 7 -38 12 -43 12 -12 42 13 36 30
-6 15 20 52 29 42 4 -3 9 -24 12 -46 4 -29 9 -39 19 -35 8 3 14 14 14 24 0 11
11 24 25 31 14 6 25 15 25 20 0 4 7 8 15 8 8 0 15 -4 15 -10 0 -5 10 -18 22
-30 20 -18 23 -19 40 -3 10 9 18 24 18 35 0 25 50 24 73 -2 9 -11 26 -20 37
-20 17 0 19 4 14 28 -4 15 -9 30 -11 35 -2 4 -61 7 -131 8 -70 0 -121 3 -114
6 33 13 2 18 -106 16 -65 -1 -130 -6 -144 -12 -18 -7 -29 -7 -33 -1 -9 14 -52
12 -59 -2 -3 -7 -4 -4 -3 7 1 12 -4 20 -13 20 -9 0 -16 11 -18 28 l-3 27 165
0 c163 0 165 0 184 -25 20 -26 32 -24 32 6 0 12 5 16 15 13 9 -4 15 0 15 9 0
27 45 8 58 -25z m-790 7 c11 -23 9 -27 -13 -37 -13 -6 -22 -15 -19 -19 3 -5 1
-9 -5 -9 -5 0 -11 6 -14 13 -3 10 -9 10 -26 0 -11 -7 -29 -13 -38 -13 -17 1
-17 1 0 11 25 15 11 32 -15 18 -23 -12 -99 -13 -185 -3 l-51 6 10 29 10 29
167 0 168 0 11 -25z m112 10 c-7 -9 -15 -13 -19 -10 -3 3 1 10 9 15 21 14 24
12 10 -5z m120 0 c10 -12 10 -15 -3 -15 -8 0 -20 7 -27 15 -10 12 -10 15 3 15
8 0 20 -7 27 -15z m-183 -17 c-3 -8 -6 -5 -6 6 -1 11 2 17 5 13 3 -3 4 -12 1
-19z m236 8 c6 -15 -1 -26 -15 -26 -4 0 -8 9 -8 20 0 23 15 27 23 6z m-251
-68 c-15 -15 -24 -6 -16 16 5 12 10 14 17 7 8 -8 8 -14 -1 -23z m60 10 c-7 -7
-12 -8 -12 -2 0 6 3 14 7 17 3 4 9 5 12 2 2 -3 -1 -11 -7 -17z m138 7 c10 -12
10 -15 -4 -15 -9 0 -16 7 -16 15 0 8 2 15 4 15 2 0 9 -7 16 -15z m75 -15 c3
-5 2 -10 -4 -10 -5 0 -13 5 -16 10 -3 6 -2 10 4 10 5 0 13 -4 16 -10z m-170
-60 c7 -22 22 -25 45 -10 12 7 16 4 20 -17 5 -27 34 -52 46 -40 4 3 1 13 -5
21 -10 12 -8 16 8 21 23 7 41 0 41 -17 0 -5 -7 -8 -15 -4 -9 3 -15 0 -15 -10
0 -8 13 -17 30 -21 75 -15 28 -23 -129 -23 -107 0 -171 4 -171 10 0 6 8 10 19
10 14 0 21 10 25 35 6 31 9 34 26 25 10 -5 29 -10 41 -10 17 0 20 5 17 25 -6
30 8 34 17 5z m1220 -10 c3 -5 -1 -10 -10 -10 -9 0 -13 5 -10 10 3 6 8 10 10
10 2 0 7 -4 10 -10z m74 -46 l31 -6 -30 -31 c-17 -17 -30 -37 -30 -44 0 -7 -5
-13 -11 -13 -6 0 -10 10 -9 23 1 12 2 32 1 45 -1 31 -34 29 -56 -4 -14 -21
-15 -34 -7 -65 15 -61 -23 -96 -82 -73 -17 7 -23 64 -6 64 15 0 42 58 30 65
-15 9 -30 -4 -30 -26 0 -14 -7 -19 -27 -19 -25 0 -26 1 -12 16 22 22 13 67
-12 61 -11 -3 -19 -1 -19 4 0 10 220 12 269 3z m-2029 -60 c-18 -21 -24 -10
-8 15 7 12 14 17 16 11 2 -6 -2 -17 -8 -26z m1670 26 c0 -5 -4 -10 -9 -10 -6
0 -13 5 -16 10 -3 6 1 10 9 10 9 0 16 -4 16 -10z m-50 -4 c0 -2 -7 -7 -16 -10
-8 -3 -12 -2 -9 4 6 10 25 14 25 6z m-1560 -15 c0 -5 -7 -14 -15 -21 -12 -10
-15 -10 -15 2 0 8 3 18 7 21 9 10 23 9 23 -2z m1983 -33 c-10 -54 -22 -80 -36
-76 -6 3 -13 18 -15 34 -2 21 0 25 7 15 8 -12 11 -9 17 15 9 36 13 44 24 44 5
0 7 -15 3 -32z m-573 -4 c0 -8 -4 -12 -10 -9 -5 3 -10 13 -10 21 0 8 5 12 10
9 6 -3 10 -13 10 -21z m-1067 -11 c-7 -2 -19 -2 -25 0 -7 3 -2 5 12 5 14 0 19
-2 13 -5z m90 -4 c-8 -8 -7 -20 3 -45 18 -42 19 -36 -17 -63 -28 -20 -30 -21
-25 -5 3 11 6 43 7 72 2 45 5 52 23 52 14 0 17 -3 9 -11z m150 -4 c-3 -9 -8
-14 -10 -11 -3 3 -2 9 2 15 9 16 15 13 8 -4z m90 4 c-8 -8 -16 -8 -30 0 -16 9
-14 10 12 11 21 0 26 -3 18 -11z m71 -4 c-5 -12 -10 -13 -20 -4 -19 15 -18 19
6 19 13 0 18 -5 14 -15z m231 5 c3 -5 2 -10 -4 -10 -5 0 -13 5 -16 10 -3 6 -2
10 4 10 5 0 13 -4 16 -10z m95 0 c0 -5 -4 -10 -10 -10 -5 0 -10 5 -10 10 0 6
5 10 10 10 6 0 10 -4 10 -10z m-255 -10 c3 -5 1 -10 -4 -10 -6 0 -11 5 -11 10
0 6 2 10 4 10 3 0 8 -4 11 -10z m892 -37 c-3 -10 -5 -2 -5 17 0 19 2 27 5 18
2 -10 2 -26 0 -35z m-1203 -5 c-1 -18 -3 -37 -3 -41 -1 -5 -5 -6 -10 -3 -8 5
-7 27 5 64 7 23 12 12 8 -20z m488 -49 c-5 -34 -21 -33 -41 2 -12 22 -12 28 5
54 l18 28 11 -27 c6 -15 9 -40 7 -57z m-643 48 c11 -28 4 -72 -13 -87 -20 -16
-40 31 -32 74 8 41 32 48 45 13z m549 -11 c2 -10 0 -22 -6 -28 -6 -6 -11 1
-14 22 -5 32 14 38 20 6z m181 11 c8 -10 7 -27 -5 -66 -11 -38 -12 -56 -4 -66
8 -9 7 -20 -1 -39 -23 -49 -50 -18 -30 33 10 22 9 36 -2 69 -12 36 -12 44 0
62 17 23 26 25 42 7z m89 -20 c2 -15 -1 -27 -7 -27 -5 0 -16 -3 -24 -6 -20 -7
-29 23 -14 47 17 27 41 20 45 -14z m-1766 -87 c-4 -123 -33 -146 -43 -34 -6
80 -4 86 24 82 17 -3 20 -10 19 -48z m1093 30 c3 -5 -1 -10 -9 -10 -8 0 -18 5
-21 10 -3 6 1 10 9 10 8 0 18 -4 21 -10z m-619 -59 c-9 -16 -16 -39 -16 -51 0
-11 -4 -20 -10 -20 -5 0 -10 6 -10 13 0 6 -3 29 -6 50 -6 33 -4 37 14 37 11 0
23 8 27 18 7 16 8 16 12 0 2 -9 -3 -30 -11 -47z m2125 -35 c-8 -90 -30 -104
-32 -19 -2 98 4 125 25 102 9 -10 11 -34 7 -83z m-1141 62 c0 -18 -2 -20 -9
-8 -6 8 -7 18 -5 22 9 14 14 9 14 -14z m825 2 c3 -5 1 -10 -4 -10 -6 0 -11 5
-11 10 0 6 2 10 4 10 3 0 8 -4 11 -10z m-1526 -51 c-14 -26 -26 -24 -33 6 -9
37 2 50 25 29 14 -13 16 -21 8 -35z m185 -2 c0 -37 4 -48 19 -53 26 -8 14 -16
-15 -9 -42 11 -62 121 -19 113 12 -3 16 -15 15 -51z m-648 -13 c-4 -19 -11
-32 -17 -29 -13 8 -11 42 3 68 15 29 22 8 14 -39z m1290 42 c3 -8 -1 -27 -9
-42 l-15 -28 -7 32 c-7 33 -1 52 16 52 5 0 12 -6 15 -14z m268 -34 c-4 -18
-11 -32 -16 -32 -16 0 -21 31 -9 57 16 35 33 17 25 -25z m-1677 -29 c-3 -10
-5 -4 -5 12 0 17 2 24 5 18 2 -7 2 -21 0 -30z m2118 18 c7 -22 -4 -75 -13 -66
-4 3 -8 24 -9 46 -3 40 11 53 22 20z m-2188 -23 c-3 -7 -5 -2 -5 12 0 14 2 19
5 13 2 -7 2 -19 0 -25z m-32 12 c3 -5 1 -10 -4 -10 -6 0 -11 5 -11 10 0 6 2
10 4 10 3 0 8 -4 11 -10z m1000 -30 c3 -5 -1 -10 -9 -10 -9 0 -16 5 -16 10 0
6 4 10 9 10 6 0 13 -4 16 -10z"/>
<path d="M2115 3371 c-3 -7 2 -11 14 -11 12 0 21 -4 21 -10 0 -5 -10 -10 -23
-10 -31 0 -62 -24 -52 -39 4 -7 17 -10 28 -7 12 3 27 0 34 -5 21 -18 34 1 31
44 -3 34 -7 43 -25 45 -11 2 -24 -2 -28 -7z"/>
<path d="M4270 3460 c-11 -7 -12 -12 -3 -21 14 -14 46 -4 41 13 -6 16 -20 19
-38 8z"/>
<path d="M4197 3319 c-41 -47 -36 -59 23 -59 47 0 50 2 50 25 0 19 -5 25 -22
25 -17 0 -19 3 -10 12 16 16 15 28 -1 28 -7 0 -25 -14 -40 -31z"/>
<path d="M2520 3275 c-6 -8 -9 -19 -5 -25 11 -19 33 -10 37 15 6 28 -12 34
-32 10z"/>
<path d="M1990 3165 c7 -9 15 -13 17 -11 7 7 -7 26 -19 26 -6 0 -6 -6 2 -15z"/>
<path d="M2146 3171 c-4 -5 -2 -12 3 -15 5 -4 12 -2 15 3 4 5 2 12 -3 15 -5 4
-12 2 -15 -3z"/>
<path d="M2591 3084 c0 -11 3 -14 6 -6 3 7 2 16 -1 19 -3 4 -6 -2 -5 -13z"/>
<path d="M2270 3070 c0 -5 5 -10 10 -10 6 0 10 5 10 10 0 6 -4 10 -10 10 -5 0
-10 -4 -10 -10z"/>
<path d="M3775 3060 c3 -5 10 -10 16 -10 5 0 9 5 9 10 0 6 -7 10 -16 10 -8 0
-12 -4 -9 -10z"/>
<path d="M3100 2940 c0 -5 5 -10 10 -10 6 0 10 5 10 10 0 6 -4 10 -10 10 -5 0
-10 -4 -10 -10z"/>
<path d="M1596 3604 c-19 -18 -20 -28 -6 -55 12 -21 50 -25 68 -7 18 18 14 56
-7 68 -27 14 -37 13 -55 -6z"/>
<path d="M4732 3538 c-17 -17 -15 -55 4 -62 48 -19 84 8 66 49 -13 27 -49 34
-70 13z"/>
<path d="M1570 3485 c-26 -31 8 -83 45 -69 37 15 25 84 -15 84 -10 0 -23 -7
-30 -15z"/>
<path d="M5000 3483 c-24 -9 -61 -46 -76 -75 -18 -35 -18 -88 1 -136 52 -130
245 -118 286 18 17 55 -1 124 -41 165 -25 25 -38 29 -92 32 -35 1 -70 0 -78
-4z m135 -74 c22 -6 46 -18 53 -27 20 -26 14 -66 -14 -93 -23 -22 -34 -24
-121 -24 -104 0 -123 10 -123 65 0 41 22 61 81 75 69 17 76 17 124 4z"/>
<path d="M1203 3442 c-24 -15 -43 -82 -43 -148 0 -58 2 -65 15 -54 11 9 39 11
102 6 146 -11 163 -15 163 -39 0 -46 8 -7 13 63 3 41 3 67 0 57 -4 -15 -14
-17 -65 -15 l-60 3 -4 49 c-5 61 -26 86 -73 86 -20 0 -41 -4 -48 -8z m89 -79
c10 -9 18 -25 18 -36 0 -17 -5 -18 -62 -12 -35 4 -65 9 -67 11 -2 2 1 15 7 29
9 20 19 25 48 25 21 0 46 -7 56 -17z"/>
<path d="M4748 3414 c-15 -33 -1 -58 35 -62 37 -5 54 30 32 64 -20 32 -52 31
-67 -2z"/>
<path d="M1562 3374 c-38 -26 -22 -74 24 -74 45 0 58 50 19 76 -18 12 -24 11
-43 -2z"/>
<path d="M4768 3309 c-18 -10 -23 -35 -12 -63 9 -24 61 -21 74 4 12 22 5 60
-10 60 -5 0 -14 2 -22 5 -7 2 -21 0 -30 -6z"/>
<path d="M1547 3254 c-4 -4 -7 -20 -7 -36 0 -32 18 -43 56 -34 21 6 25 11 22
39 -3 28 -7 32 -33 35 -17 2 -34 0 -38 -4z"/>
<path d="M4773 3189 c-39 -14 -21 -79 21 -79 29 0 49 22 44 51 -4 26 -35 40
-65 28z"/>
<path d="M1558 3139 c-19 -11 -23 -45 -9 -67 5 -8 21 -12 37 -10 26 3 29 7 32
41 2 20 -1 37 -7 37 -5 0 -15 2 -23 5 -7 2 -21 0 -30 -6z"/>
<path d="M4760 3066 c-28 -35 11 -93 48 -70 35 22 22 84 -18 84 -10 0 -23 -7
-30 -14z"/>
<path d="M1566 3017 c-38 -27 2 -95 42 -71 24 16 28 55 6 71 -10 7 -21 13 -24
13 -3 0 -14 -6 -24 -13z"/>
<path d="M1963 2953 c18 -5 18 -5 0 -19 -16 -12 -16 -13 -2 -14 19 0 42 24 32
33 -3 4 -16 6 -27 6 -18 -1 -18 -2 -3 -6z"/>
<path d="M2123 2942 c10 -11 17 -25 15 -32 -2 -7 2 -15 9 -17 13 -5 30 44 19
55 -4 3 -19 8 -33 10 -26 3 -27 3 -10 -16z"/>
<path d="M4741 2946 c-7 -8 -11 -25 -9 -38 2 -19 9 -23 38 -23 33 0 35 2 35
35 0 30 -4 35 -26 38 -14 2 -31 -4 -38 -12z"/>
<path d="M2073 2906 c4 -10 7 -27 7 -39 0 -15 3 -18 11 -10 14 14 8 55 -10 61
-10 3 -12 0 -8 -12z"/>
<path d="M2193 2885 c0 -22 2 -30 4 -17 2 12 2 30 0 40 -3 9 -5 -1 -4 -23z"/>
<path d="M1582 2898 c-33 -33 6 -91 47 -69 28 15 34 41 15 62 -20 22 -45 24
-62 7z"/>
<path d="M1303 2824 c-26 -40 -30 -74 -10 -74 8 0 22 -9 32 -20 27 -30 49 -24
77 20 32 49 27 70 -21 93 -50 23 -52 22 -78 -19z m57 1 c0 -8 -6 -15 -14 -15
-17 0 -28 14 -19 24 12 12 33 6 33 -9z m45 -24 c7 -12 -12 -24 -25 -16 -11 7
-4 25 10 25 5 0 11 -4 15 -9z m-79 -12 c10 -17 -13 -36 -27 -22 -12 12 -4 33
11 33 5 0 12 -5 16 -11z m44 -45 c0 -17 -22 -14 -28 4 -2 7 3 12 12 12 9 0 16
-7 16 -16z"/>
<path d="M4714 2826 c-13 -33 0 -61 30 -64 31 -4 46 10 46 44 0 33 -65 49 -76
20z"/>
<path d="M5000 2793 c-58 -25 -62 -31 -43 -64 13 -22 22 -27 40 -23 17 5 23 2
23 -11 0 -13 -6 -16 -25 -11 -19 5 -23 3 -19 -9 8 -20 27 -19 73 5 40 20 58
45 40 55 -5 4 -16 22 -24 41 -16 38 -16 38 -65 17z m45 -23 c0 -7 -6 -15 -12
-17 -8 -3 -13 4 -13 17 0 13 5 20 13 18 6 -3 12 -11 12 -18z m-53 -25 c0 -5
-5 -11 -11 -13 -6 -2 -11 4 -11 13 0 9 5 15 11 13 6 -2 11 -8 11 -13z m78 -20
c0 -8 -7 -15 -15 -15 -16 0 -20 12 -8 23 11 12 23 8 23 -8z"/>
<path d="M1600 2771 c-17 -34 4 -63 43 -59 29 3 32 6 32 38 0 32 -3 35 -32 38
-24 2 -34 -2 -43 -17z"/>
<path d="M2431 2734 c0 -11 3 -14 6 -6 3 7 2 16 -1 19 -3 4 -6 -2 -5 -13z"/>
<path d="M4686 2714 c-9 -8 -16 -22 -16 -29 0 -17 27 -45 44 -45 15 0 46 32
46 48 0 15 -29 42 -45 42 -7 0 -21 -7 -29 -16z"/>
<path d="M2265 2680 c3 -5 8 -10 11 -10 2 0 4 5 4 10 0 6 -5 10 -11 10 -5 0
-7 -4 -4 -10z"/>
<path d="M1645 2667 c-13 -10 -16 -21 -11 -40 11 -47 71 -46 83 1 6 25 -15 52
-42 52 -6 0 -19 -6 -30 -13z"/>
<path d="M1760 2640 c0 -5 5 -10 10 -10 6 0 10 5 10 10 0 6 -4 10 -10 10 -5 0
-10 -4 -10 -10z"/>
<path d="M2476 2605 c-5 -14 -9 -16 -18 -7 -18 18 -38 14 -38 -7 0 -15 8 -19
40 -19 46 -1 55 8 36 33 -12 17 -13 17 -20 0z"/>
<path d="M4642 2608 c-20 -20 -15 -66 8 -73 46 -15 77 16 60 60 -10 27 -47 34
-68 13z"/>
<path d="M2545 2589 c-4 -6 -5 -13 -2 -16 7 -7 27 6 27 18 0 12 -17 12 -25 -2z"/>
<path d="M3792 2569 c2 -6 8 -10 13 -10 5 0 11 4 13 10 2 6 -4 11 -13 11 -9 0
-15 -5 -13 -11z"/>
<path d="M2496 2541 c-6 -10 52 -21 72 -14 6 3 12 9 12 14 0 12 -77 12 -84 0z"/>
<path d="M3782 2528 c5 -15 88 -24 88 -10 0 11 -34 22 -68 22 -15 0 -22 -5
-20 -12z"/>
<path d="M1742 2448 c-18 -18 -14 -45 10 -62 25 -18 53 -7 63 24 13 40 -43 68
-73 38z"/>
<path d="M4015 2437 c-74 -30 -91 -57 -86 -138 2 -29 -3 -39 -23 -52 -17 -11
-27 -30 -31 -54 -9 -53 -23 -85 -46 -101 -11 -7 -19 -25 -19 -40 0 -15 -14
-56 -31 -90 -17 -35 -29 -68 -26 -75 2 -6 22 8 45 33 54 59 63 46 12 -19 -43
-55 -40 -63 12 -31 18 11 47 20 63 21 17 0 57 16 90 34 33 19 84 45 113 59 28
14 52 27 52 30 0 6 -60 -13 -75 -24 -5 -3 -32 -15 -58 -24 -80 -30 -105 0 -41
49 29 22 38 25 45 14 6 -11 31 9 101 80 98 98 98 100 6 39 -64 -43 -68 -44
-68 -23 0 8 -3 15 -7 15 -9 0 -59 -45 -94 -86 -14 -16 -35 -38 -47 -48 -20
-17 -22 -17 -22 -2 0 9 11 28 25 42 13 13 37 45 52 72 36 63 73 112 85 112 5
0 26 11 46 25 47 32 127 34 213 5 67 -23 85 -21 45 5 -36 24 -33 32 17 46 63
18 67 29 9 26 -58 -2 -69 11 -26 33 29 14 29 14 -37 21 -37 4 -89 17 -115 29
-60 26 -138 34 -179 17z m140 -28 c15 -6 10 -8 -20 -8 -26 -1 -54 -10 -77 -26
-20 -14 -42 -25 -48 -25 -22 0 -4 35 30 58 34 23 61 23 115 1z m67 -29 c18
-11 29 -20 23 -20 -5 0 -23 9 -40 20 -39 26 -25 26 17 0z m-27 -24 l30 -13
-40 -11 c-22 -6 -57 -14 -77 -18 -34 -5 -38 -4 -38 14 0 40 65 54 125 28z
m-220 -26 c3 -5 -1 -10 -9 -10 -9 0 -16 5 -16 10 0 6 4 10 9 10 6 0 13 -4 16
-10z m90 -59 c-3 -3 -18 8 -33 23 l-27 29 32 -23 c18 -13 30 -26 28 -29z m-47
-11 c2 -15 -52 -80 -68 -80 -23 0 -13 76 13 92 18 12 51 5 55 -12z m-100 -73
c16 -19 19 -79 6 -84 -7 -2 -17 10 -23 28 -20 57 -10 89 17 56z m-68 -141 c0
-8 3 -23 6 -33 5 -12 4 -15 -3 -8 -16 15 -26 55 -14 55 6 0 11 -6 11 -14z"/>
<path d="M4726 2437 c-14 -31 -2 -140 18 -167 40 -52 77 -73 133 -78 46 -4 58
-1 78 18 55 51 35 140 -37 162 -52 15 -89 2 -109 -40 -15 -33 -15 -33 -38 -15
-17 14 -25 34 -30 78 -5 42 -10 55 -15 42z m210 -148 c76 -47 -1 -75 -80 -28
-35 20 -44 38 -28 53 12 12 70 -1 108 -25z"/>
<path d="M3091 2431 c-12 -8 -12 -14 -2 -39 15 -36 7 -59 -15 -41 -8 6 -14 24
-14 39 0 33 -27 47 -48 26 -15 -14 -13 -26 10 -58 7 -9 9 -20 5 -24 -10 -11
-47 26 -47 48 0 12 -7 18 -24 18 -35 0 -39 -25 -10 -60 24 -28 25 -30 6 -30
-11 0 -30 12 -41 26 -24 30 -55 29 -59 -4 -2 -15 2 -22 14 -22 38 0 132 -128
119 -162 -4 -11 1 -21 14 -30 12 -7 21 -16 21 -19 0 -13 -79 -30 -130 -27
l-54 3 -14 -40 c-22 -66 -18 -284 7 -382 26 -101 87 -232 136 -290 67 -82 203
-203 227 -203 5 0 34 20 63 44 134 109 267 320 307 486 16 69 19 106 15 200
-3 63 -11 132 -18 153 l-12 37 -77 -6 c-57 -5 -83 -3 -104 8 l-27 14 25 14
c16 8 26 22 26 36 0 49 57 124 101 133 39 8 59 35 41 53 -10 10 -18 9 -41 -5
-44 -26 -55 -22 -35 12 15 25 15 32 5 45 -20 24 -31 20 -47 -19 -8 -19 -21
-35 -29 -35 -20 0 -19 26 0 34 21 8 19 33 -4 45 -22 12 -35 1 -45 -41 -7 -31
-18 -35 -35 -14 -9 10 -8 16 4 26 19 16 19 34 0 50 -21 18 -48 -6 -42 -37 5
-25 -16 -49 -33 -38 -6 4 -8 22 -4 46 6 37 5 39 -20 39 -31 0 -44 -24 -28 -50
9 -14 8 -21 -3 -30 -22 -19 -45 5 -42 43 2 33 -16 45 -42 28z m129 -116 c10
-12 16 -12 26 -4 17 14 44 5 44 -16 0 -8 8 -15 18 -15 14 0 15 -2 2 -10 -8 -5
-19 -5 -25 -1 -8 7 -170 8 -170 2 0 -1 -24 -4 -52 -7 -34 -3 -53 -1 -53 5 0 6
14 11 30 11 17 0 30 4 30 10 0 5 7 7 15 4 8 -4 17 1 21 10 7 18 35 21 50 6 8
-8 15 -6 24 5 16 19 24 19 40 0z m-53 -107 c-3 -8 -6 -5 -6 6 -1 11 2 17 5 13
3 -3 4 -12 1 -19z m131 -63 c21 -21 -118 -35 -197 -19 -34 7 -41 20 -13 28 22
7 202 -1 210 -9z m-281 -121 c-7 -7 -159 -6 -166 1 -2 3 35 5 84 5 49 0 85 -3
82 -6z m227 -105 c27 -32 35 -51 41 -102 13 -120 38 -191 83 -239 22 -24 23
-28 8 -28 -28 0 -76 -58 -76 -90 0 -16 -7 -36 -16 -44 -21 -21 -24 -20 -23 7
1 12 -6 39 -15 59 -9 21 -16 49 -16 62 0 36 -19 73 -46 91 -13 8 -30 28 -39
44 -14 28 -14 29 10 35 14 4 25 11 25 16 0 6 -10 8 -23 5 -16 -4 -33 3 -62 30
-44 39 -56 40 -66 4 -6 -19 -7 -15 -8 18 -1 35 -5 42 -23 46 -22 4 -21 4 2 6
14 0 43 -10 65 -24 48 -29 64 -32 41 -6 -14 16 -15 23 -6 40 10 20 9 21 -14
15 -24 -6 -26 -3 -26 24 0 17 4 33 9 37 5 3 9 27 8 53 l-2 48 67 -34 c39 -20
83 -51 102 -73z m285 106 c-9 -9 -186 -12 -289 -5 -94 6 -85 7 94 8 110 1 197
0 195 -3z m-499 -35 c0 -12 -98 -12 -155 -1 -32 7 -21 9 58 10 59 1 97 -3 97
-9z m438 -7 c-42 -2 -114 -2 -160 0 -46 1 -11 3 77 3 88 0 125 -2 83 -3z
m-480 -30 c-26 -2 -71 -2 -100 0 -29 2 -8 3 47 3 55 0 79 -1 53 -3z m542 -3
c10 -7 -25 -10 -107 -10 -71 0 -124 4 -128 10 -8 13 215 13 235 0z m-557 -27
c-24 -2 -62 -2 -85 0 -24 2 -5 4 42 4 47 0 66 -2 43 -4z m520 -10 c-34 -2 -93
-2 -130 0 -37 2 -9 3 62 3 72 0 102 -1 68 -3z m-498 -27 c17 -1 -12 -4 -62 -4
-51 -1 -93 1 -93 6 0 6 83 6 155 -2z m478 -3 c-29 -2 -77 -2 -105 0 -29 2 -6
3 52 3 58 0 81 -1 53 -3z m-560 -30 c-13 -2 -33 -2 -45 0 -13 2 -3 4 22 4 25
0 35 -2 23 -4z m602 -2 c30 -7 14 -8 -68 -8 -59 0 -110 4 -113 8 -7 11 128 11
181 0z m-617 -28 c-10 -2 -28 -2 -40 0 -13 2 -5 4 17 4 22 1 32 -1 23 -4z
m652 -13 c0 -5 -12 -11 -27 -11 -24 -2 -25 -2 -5 -6 12 -2 20 -9 17 -14 -11
-16 -32 -9 -49 16 l-16 25 40 0 c22 0 40 -4 40 -10z m-615 -20 c4 -6 -11 -10
-39 -10 -25 0 -48 5 -51 10 -4 6 11 10 39 10 25 0 48 -4 51 -10z m515 -12 c0
-12 -1 -19 -3 -17 -1 2 -9 12 -16 22 -12 14 -11 17 3 17 10 0 16 -8 16 -22z
m-507 -25 c-13 -2 -33 -2 -45 0 -13 2 -3 4 22 4 25 0 35 -2 23 -4z m590 -10
c-7 -2 -19 -2 -25 0 -7 3 -2 5 12 5 14 0 19 -2 13 -5z m-30 -70 c-13 -2 -33
-2 -45 0 -13 2 -3 4 22 4 25 0 35 -2 23 -4z m-450 -25 c-22 -7 -59 -8 -115 -1
l-83 10 115 0 c93 1 109 -1 83 -9z m450 -5 c-7 -2 -21 -2 -30 0 -10 3 -4 5 12
5 17 0 24 -2 18 -5z m-339 -22 c14 -15 15 -24 7 -40 -6 -11 -11 -31 -11 -45 0
-26 -14 -35 -25 -16 -12 20 -73 11 -104 -16 -22 -18 -31 -22 -31 -11 0 22 20
34 70 44 41 8 45 11 42 35 -3 28 13 68 27 68 4 0 16 -9 25 -19z m329 -8 c-7
-2 -19 -2 -25 0 -7 3 -2 5 12 5 14 0 19 -2 13 -5z m-576 -29 c-3 -3 -12 -4
-19 -1 -8 3 -5 6 6 6 11 1 17 -2 13 -5z m121 -1 c-10 -2 -26 -2 -35 0 -10 3
-2 5 17 5 19 0 27 -2 18 -5z m452 -3 c0 -5 -5 -10 -11 -10 -5 0 -7 5 -4 10 3
6 8 10 11 10 2 0 4 -4 4 -10z m-480 -30 c0 -5 -24 -10 -54 -10 -30 0 -58 5
-61 10 -4 6 17 10 54 10 34 0 61 -4 61 -10z m-55 -30 c8 -13 -15 -13 -35 0
-12 8 -11 10 7 10 12 0 25 -4 28 -10z m498 -7 c-7 -2 -21 -2 -30 0 -10 3 -4 5
12 5 17 0 24 -2 18 -5z m-275 -30 c-15 -2 -42 -2 -60 0 -18 2 -6 4 27 4 33 0
48 -2 33 -4z m272 -3 c0 -5 -18 -10 -40 -10 -22 0 -40 5 -40 10 0 6 18 10 40
10 22 0 40 -4 40 -10z m-392 -27 c-21 -2 -57 -2 -80 0 -24 2 -7 4 37 4 44 0
63 -2 43 -4z m95 -10 c-7 -2 -21 -2 -30 0 -10 3 -4 5 12 5 17 0 24 -2 18 -5z
m0 -30 c-34 -2 -93 -2 -130 0 -37 2 -9 3 62 3 72 0 102 -1 68 -3z m247 -3 c0
-5 -4 -10 -9 -10 -6 0 -13 5 -16 10 -3 6 1 10 9 10 9 0 16 -4 16 -10z m-210
-30 c0 -12 -92 -12 -165 0 -42 6 -33 8 58 9 65 0 107 -3 107 -9z m190 0 c0 -5
-14 -10 -31 -10 -17 0 -28 4 -24 10 3 6 17 10 31 10 13 0 24 -4 24 -10z m-152
-27 c-16 -39 -28 -51 -28 -28 0 16 26 55 36 55 2 0 -2 -12 -8 -27z m-125 0
c-7 -2 -19 -2 -25 0 -7 3 -2 5 12 5 14 0 19 -2 13 -5z m-50 -10 c-7 -2 -19 -2
-25 0 -7 3 -2 5 12 5 14 0 19 -2 13 -5z m290 0 c-7 -2 -13 -11 -13 -19 0 -9
-10 -14 -32 -13 -31 2 -31 2 -5 6 30 5 36 19 10 26 -10 3 -2 5 17 5 19 0 29
-2 23 -5z m-228 -22 c40 -9 39 -9 -17 -10 -33 0 -58 3 -58 9 0 12 20 12 75 1z
m40 -41 c4 -6 -11 -10 -37 -9 -33 0 -38 2 -23 9 28 12 53 12 60 0z m128 -7
c-7 -2 -21 -2 -30 0 -10 3 -4 5 12 5 17 0 24 -2 18 -5z m-55 -30 c-21 -2 -57
-2 -80 0 -24 2 -7 4 37 4 44 0 63 -2 43 -4z m-35 -30 c-7 -2 -19 -2 -25 0 -7
3 -2 5 12 5 14 0 19 -2 13 -5z"/>
<path d="M1582 2400 c7 -10 10 -21 8 -23 -3 -2 -44 -25 -92 -51 -87 -46 -128
-57 -128 -34 0 6 -3 9 -6 5 -3 -3 7 -28 22 -55 26 -47 29 -49 43 -32 9 10 67
45 129 77 61 32 112 61 112 64 0 6 -85 69 -94 69 -3 0 -1 -9 6 -20z"/>
<path d="M2030 2397 c0 -7 9 -20 20 -30 11 -9 20 -23 20 -31 0 -7 7 -19 15
-26 10 -8 15 -30 15 -61 0 -27 4 -49 9 -49 5 0 28 -30 52 -67 57 -90 167 -179
246 -200 51 -13 63 -13 130 3 68 16 105 13 74 -5 -17 -11 -10 -51 12 -65 19
-12 47 0 55 23 3 10 0 10 -18 1 -29 -15 -50 1 -30 25 19 23 -2 65 -29 58 -33
-9 -27 40 15 108 26 44 33 65 28 81 -4 13 -6 37 -5 53 2 33 -18 87 -46 122
-22 27 -104 63 -145 63 -73 0 -157 -72 -173 -147 -7 -36 10 -110 32 -135 20
-22 3 -30 -47 -22 -48 8 -90 55 -74 83 13 21 6 51 -11 51 -15 0 -40 55 -30 69
3 6 17 11 30 11 13 0 31 10 39 22 23 33 19 43 -9 24 -28 -19 -35 -20 -35 -6 0
6 7 10 15 10 21 0 19 26 -2 34 -10 3 -24 9 -32 12 -11 5 -12 1 -7 -20 7 -29
-5 -34 -24 -11 -7 8 -16 15 -21 15 -5 0 -6 -7 -3 -15 4 -10 0 -15 -10 -15 -9
0 -21 11 -26 25 -10 26 -30 34 -30 12z m420 -26 c0 -6 14 -11 31 -13 28 -3 29
-4 15 -23 -13 -18 -16 -19 -33 -4 -10 9 -24 14 -30 12 -7 -3 -13 0 -13 6 0 6
-7 11 -16 11 -8 0 -12 5 -9 10 8 13 55 13 55 1z m-38 -87 c-4 -47 -8 -51 -30
-38 -24 16 -28 55 -6 71 28 20 39 10 36 -33z m145 30 c2 -5 -6 -20 -18 -33
-15 -16 -24 -20 -32 -12 -17 17 -33 13 -44 -11 l-10 -23 -12 23 c-11 21 -8 24
41 46 55 25 69 27 75 10z m-221 -48 c-4 -18 -1 -25 13 -29 14 -3 18 -11 14
-26 -6 -23 -24 -27 -53 -11 -17 9 -18 14 -8 38 22 52 45 70 34 28z m273 -13
c14 -17 19 -33 15 -47 -10 -32 -12 -32 -44 2 -20 23 -24 32 -13 30 9 -2 18 3
20 10 3 6 0 12 -6 12 -6 0 -11 5 -11 10 0 18 18 10 39 -17z m-469 -17 c0 -3
-4 -8 -10 -11 -5 -3 -10 -1 -10 4 0 6 5 11 10 11 6 0 10 -2 10 -4z m394 -4 c7
-11 -6 -27 -26 -35 -20 -7 -32 7 -24 28 6 16 41 21 50 7z m26 -58 c0 -8 -4
-12 -10 -9 -5 3 -10 10 -10 16 0 5 5 9 10 9 6 0 10 -7 10 -16z m-40 -9 c10
-12 9 -16 -5 -21 -19 -8 -40 9 -31 25 10 15 21 14 36 -4z m-147 -8 c3 -8 1
-20 -3 -27 -7 -11 -13 -10 -34 4 -14 9 -26 21 -26 26 0 15 57 12 63 -3z m214
-39 c-3 -7 -5 -2 -5 12 0 14 2 19 5 13 2 -7 2 -19 0 -25z m-107 7 c13 -16 6
-35 -15 -35 -15 0 -28 27 -19 41 8 13 20 11 34 -6z m-60 -15 c0 -11 -6 -20
-13 -20 -19 0 -27 10 -20 26 8 21 33 17 33 -6z m130 0 c0 -5 -12 -10 -27 -9
l-28 1 25 8 c14 4 26 8 28 9 1 1 2 -3 2 -9z m-260 -63 c0 -5 -7 -6 -16 -3 -9
3 -20 6 -24 6 -5 0 -14 8 -19 19 -10 17 -9 18 24 3 19 -9 35 -20 35 -25z m266
8 c4 -14 4 -29 0 -32 -3 -4 -6 1 -6 9 0 9 -7 19 -16 22 -8 3 -12 10 -9 16 11
18 24 11 31 -15z m-226 6 c0 -6 -4 -13 -10 -16 -5 -3 -10 1 -10 9 0 9 5 16 10
16 6 0 10 -4 10 -9z m60 -30 c7 -13 7 -22 0 -26 -15 -9 -30 4 -30 26 0 25 16
25 30 0z m130 4 c7 -8 8 -15 2 -15 -5 0 -15 7 -22 15 -7 8 -8 15 -2 15 5 0 15
-7 22 -15z"/>
<path d="M3805 2368 c-4 -23 -15 -65 -25 -94 -21 -61 -27 -104 -17 -121 12
-19 -4 -93 -19 -93 -21 0 -33 35 -43 120 -8 73 -8 71 -10 -56 0 -71 3 -134 8
-140 6 -5 11 -31 13 -59 l3 -50 33 68 c17 38 32 74 32 80 0 14 26 90 44 132 8
17 16 42 20 58 5 23 3 27 -15 27 -21 0 -22 2 -15 85 7 90 2 113 -9 43z"/>
<path d="M4532 2388 c-27 -27 -6 -68 34 -68 30 0 48 24 40 55 -5 19 -13 25
-34 25 -15 0 -33 -5 -40 -12z"/>
<path d="M1801 2342 c-23 -43 11 -78 57 -61 24 9 30 47 10 67 -18 18 -56 14
-67 -6z"/>
<path d="M4478 2299 c-26 -14 -24 -66 2 -74 11 -3 29 -3 40 0 27 9 27 60 1 75
-23 12 -22 12 -43 -1z"/>
<path d="M1877 2252 c-21 -23 -22 -58 -1 -66 51 -20 88 17 59 60 -19 29 -36
30 -58 6z"/>
<path d="M4397 2192 c-23 -25 -21 -39 7 -57 29 -19 54 -10 62 21 12 47 -37 72
-69 36z"/>
<path d="M1703 2179 c-26 -10 -43 -38 -43 -74 0 -22 -3 -24 -19 -15 -52 27
-101 -6 -101 -67 1 -83 100 -134 154 -80 16 16 26 37 26 55 0 26 2 28 35 24
65 -8 93 44 61 107 -26 48 -68 67 -113 50z m94 -54 c3 -24 -25 -60 -55 -69
-20 -7 -22 -4 -22 25 0 18 8 41 17 51 21 24 57 20 60 -7z m-137 -89 c0 -30
-36 -76 -60 -76 -47 0 -46 51 2 84 34 24 58 20 58 -8z"/>
<path d="M1953 2163 c-20 -7 -16 -61 5 -71 29 -16 62 3 62 37 0 35 -29 50 -67
34z"/>
<path d="M2235 2140 c3 -5 11 -10 16 -10 6 0 7 5 4 10 -3 6 -11 10 -16 10 -6
0 -7 -4 -4 -10z"/>
<path d="M4595 2142 c-75 -15 -74 -114 2 -183 83 -77 195 -78 209 -3 8 43 0
63 -39 105 -56 61 -120 91 -172 81z m39 -54 c105 -82 155 -130 150 -143 -4 -8
-14 -15 -24 -15 -18 0 -162 106 -187 138 -35 43 12 58 61 20z"/>
<path d="M4315 2100 c-17 -18 -17 -21 -1 -45 18 -28 33 -31 59 -11 31 24 15
76 -23 76 -9 0 -25 -9 -35 -20z"/>
<path d="M2036 2074 c-34 -34 -8 -82 39 -70 20 5 25 13 25 36 0 19 -7 33 -19
40 -25 13 -27 13 -45 -6z"/>
<path d="M4230 2024 c-17 -20 -2 -67 23 -72 20 -4 57 24 57 43 0 16 -33 45
-52 45 -9 0 -21 -7 -28 -16z"/>
<path d="M2116 1989 c-23 -34 -6 -64 35 -64 30 0 34 3 37 30 6 49 -44 73 -72
34z"/>
<path d="M1920 1950 c-14 -11 -29 -20 -35 -20 -5 0 -16 -4 -24 -9 -12 -8 -9
-15 12 -41 38 -45 36 -82 -8 -116 -25 -19 -42 -25 -60 -20 -21 5 -25 12 -25
45 0 41 -18 59 -39 38 -30 -30 -3 -85 57 -117 35 -18 98 -3 123 28 26 34 21
100 -11 144 -35 47 -10 56 36 14 37 -34 80 -47 98 -29 5 5 -87 104 -97 103 -1
0 -13 -9 -27 -20z"/>
<path d="M4152 1954 c-31 -21 -29 -62 3 -70 14 -3 32 -4 40 0 20 7 19 50 -1
70 -19 19 -15 19 -42 0z"/>
<path d="M4390 1929 c-35 -13 -63 -62 -55 -97 18 -81 119 -118 160 -59 19 27
26 18 32 -36 4 -30 0 -55 -12 -78 l-17 -34 25 25 c32 30 52 103 43 150 -18 96
-102 158 -176 129z m28 -36 c37 -23 83 -75 79 -87 -8 -25 -47 -16 -86 20 -38
34 -50 61 -34 77 9 10 10 9 41 -10z"/>
<path d="M2216 1917 c-11 -8 -17 -23 -14 -38 2 -19 10 -25 37 -27 48 -5 68 30
35 62 -19 19 -35 20 -58 3z"/>
<path d="M4043 1884 c-30 -13 -3 -84 31 -84 22 0 38 27 34 57 -2 22 -9 28 -28
30 -14 1 -31 -1 -37 -3z"/>
<path d="M2317 1852 c-42 -46 14 -100 57 -56 21 20 20 30 -4 54 -25 25 -32 25
-53 2z"/>
<path d="M3934 1805 c-9 -37 2 -55 34 -55 40 0 58 23 44 55 -16 36 -69 36 -78
0z"/>
<path d="M2414 1786 c-12 -31 0 -61 27 -64 31 -4 52 18 47 50 -2 18 -10 24
-36 26 -21 2 -34 -2 -38 -12z"/>
<path d="M2096 1771 c-34 -22 -55 -56 -56 -87 0 -26 36 -74 56 -74 29 0 12
-19 -31 -36 -38 -14 -53 -15 -82 -6 -48 15 -54 8 -11 -14 51 -27 139 -23 182
7 65 46 81 78 77 159 -1 16 -13 33 -34 48 -41 27 -63 28 -101 3z m96 -36 c-5
-30 -45 -104 -60 -110 -40 -15 -43 47 -4 98 30 41 69 48 64 12z"/>
<path d="M3835 1760 c-37 -41 24 -97 63 -58 17 17 15 42 -6 61 -24 22 -35 21
-57 -3z"/>
<path d="M2538 1752 c-23 -5 -34 -48 -18 -67 17 -21 57 -19 69 3 21 40 -7 74
-51 64z"/>
<path d="M4140 1717 c-34 -58 -35 -60 -13 -49 10 6 24 8 30 4 5 -4 36 -46 68
-95 47 -72 55 -90 45 -102 -20 -24 -3 -17 50 21 54 39 59 45 32 38 -12 -4 -29
13 -62 62 -69 102 -79 117 -91 142 -17 32 -31 27 -59 -21z"/>
<path d="M3726 1714 c-9 -8 -16 -22 -16 -29 0 -16 27 -45 41 -45 25 0 49 23
49 45 0 14 -8 29 -19 35 -27 14 -37 13 -55 -6z"/>
<path d="M2626 1686 c-10 -39 2 -56 40 -56 39 0 50 16 40 55 -5 20 -12 25 -40
25 -27 0 -35 -5 -40 -24z"/>
<path d="M3612 1678 c-18 -18 -14 -45 10 -62 32 -23 60 -4 56 37 -2 26 -8 33
-28 35 -14 2 -31 -3 -38 -10z"/>
<path d="M2514 1506 c-11 -8 -31 -16 -44 -18 -27 -3 -28 -13 -13 -78 11 -43
38 -50 94 -24 42 19 47 32 25 72 -8 15 -17 35 -20 45 -7 21 -15 21 -42 3z m36
-25 c0 -14 -18 -23 -30 -16 -6 4 -8 11 -5 16 8 12 35 12 35 0z m-60 -21 c0 -5
-7 -10 -16 -10 -8 0 -12 5 -9 10 3 6 10 10 16 10 5 0 9 -4 9 -10z m80 -35 c0
-8 -7 -15 -15 -15 -8 0 -15 7 -15 15 0 8 7 15 15 15 8 0 15 -7 15 -15z m-59
-28 c-13 -13 -26 -3 -16 12 3 6 11 8 17 5 6 -4 6 -10 -1 -17z"/>
<path d="M3809 1483 c-5 -16 -17 -33 -25 -39 -22 -17 -7 -41 42 -65 36 -18 46
-20 59 -9 8 7 15 20 15 30 0 10 7 23 15 30 26 21 17 38 -31 60 -59 26 -62 25
-75 -7z m41 -8 c0 -8 -4 -15 -9 -15 -13 0 -22 16 -14 24 11 11 23 6 23 -9z
m50 -25 c0 -5 -4 -10 -10 -10 -5 0 -10 5 -10 10 0 6 5 10 10 10 6 0 10 -4 10
-10z m-75 -28 c0 -18 -20 -15 -23 4 -3 10 1 15 10 12 7 -3 13 -10 13 -16z m55
-27 c0 -8 -7 -15 -15 -15 -8 0 -15 7 -15 15 0 8 7 15 15 15 8 0 15 -7 15 -15z"/>
<path d="M6975 5311 c-59 -29 -79 -50 -106 -111 -22 -52 -24 -66 -23 -245 0
-173 2 -195 22 -244 32 -75 77 -111 167 -131 106 -24 216 23 262 113 26 49 27
61 31 222 5 195 -5 268 -45 328 -39 58 -89 81 -188 85 -63 2 -88 -1 -120 -17z
m169 -107 c35 -34 48 -119 44 -278 -3 -122 -7 -158 -22 -186 -10 -19 -24 -38
-30 -42 -15 -10 -88 -10 -103 0 -31 20 -45 96 -47 247 -1 164 12 236 48 260
27 20 91 19 110 -1z"/>
<path d="M9255 5314 c-51 -19 -82 -53 -108 -118 -17 -41 -21 -80 -25 -208 -5
-186 11 -283 56 -334 96 -111 297 -103 375 15 24 34 30 56 34 121 l6 80 -70 0
-70 0 -6 -62 c-7 -80 -30 -112 -85 -116 -31 -2 -45 2 -61 19 -28 30 -33 78
-29 281 3 172 4 177 28 203 20 21 32 25 65 23 35 -3 42 -8 57 -38 10 -19 20
-52 23 -72 l6 -38 71 0 70 0 -7 68 c-14 128 -86 191 -220 191 -38 0 -88 -7
-110 -15z"/>
<path d="M10640 5309 c-98 -43 -136 -157 -127 -388 5 -149 21 -223 58 -269 59
-75 208 -99 304 -50 61 31 90 78 104 168 18 106 21 100 -64 100 l-75 0 0 -50
c0 -31 -8 -66 -20 -90 -19 -37 -23 -40 -64 -40 -29 0 -48 6 -60 19 -27 29 -39
141 -33 298 6 175 19 206 84 211 27 2 46 -2 56 -13 18 -17 37 -76 37 -112 0
-22 4 -23 71 -23 l72 0 -5 65 c-11 133 -84 196 -225 194 -44 0 -84 -8 -113
-20z"/>
<path d="M11193 5312 c-56 -23 -77 -44 -104 -105 -22 -49 -24 -64 -24 -252 l0
-200 30 -60 c25 -51 38 -64 84 -89 113 -61 268 -29 324 66 44 76 60 273 36
445 -16 113 -57 174 -138 201 -49 17 -159 14 -208 -6z m179 -124 c22 -31 23
-43 26 -220 3 -162 1 -193 -14 -225 -23 -48 -30 -53 -81 -53 -78 0 -97 50 -98
260 0 163 6 206 36 244 16 21 29 26 64 26 38 0 47 -4 67 -32z"/>
<path d="M6330 4956 l0 -366 70 0 69 0 3 143 3 142 80 6 c155 10 225 79 225
220 0 97 -41 174 -109 201 -14 6 -97 13 -183 16 l-158 4 0 -366z m273 229 c23
-23 27 -33 27 -84 0 -83 -18 -103 -96 -105 l-59 -1 -3 108 -3 107 53 0 c43 0
58 -5 81 -25z"/>
<path d="M7420 4955 l0 -365 205 0 205 0 0 60 0 60 -130 0 -130 0 0 305 0 305
-75 0 -75 0 0 -365z"/>
<path d="M7900 4955 l0 -365 75 0 75 0 -2 363 -3 362 -72 3 -73 3 0 -366z"/>
<path d="M8117 5313 c-4 -3 -7 -30 -7 -60 l0 -53 80 0 80 0 1 -277 c1 -153 2
-289 3 -303 1 -24 4 -25 74 -28 l72 -3 0 306 0 305 80 0 80 0 0 60 0 60 -228
0 c-126 0 -232 -3 -235 -7z"/>
<path d="M8640 4955 l0 -365 210 0 210 0 0 60 0 60 -135 0 -135 0 0 100 0 100
120 0 120 0 0 60 0 60 -120 0 -120 0 0 85 0 85 130 0 130 0 0 60 0 60 -205 0
-205 0 0 -365z"/>
<path d="M9680 4955 l0 -365 65 0 65 0 0 247 c0 148 4 243 9 238 5 -6 27 -62
49 -125 22 -63 59 -170 83 -237 l43 -123 83 0 83 0 0 365 0 366 -67 -3 -68 -3
-3 -235 c-3 -265 4 -260 -72 -45 -21 61 -51 144 -66 185 -14 41 -31 81 -36 88
-7 8 -38 12 -89 12 l-79 0 0 -365z"/>
<path d="M10270 4955 l0 -365 70 0 70 0 0 365 0 365 -70 0 -70 0 0 -365z"/>
<path d="M13757 5303 c-4 -3 -7 -602 -7 -1330 l0 -1323 389 0 389 0 15 43 c62
171 76 214 77 230 0 16 -20 17 -290 17 l-290 0 0 450 0 450 443 0 442 0 40
122 c22 67 41 128 43 135 3 11 -87 13 -482 13 l-486 0 0 455 0 455 642 2 641
3 43 130 c24 72 44 136 44 143 0 9 -171 12 -823 12 -453 0 -827 -3 -830 -7z"/>
<path d="M15630 5308 c0 -2 -22 -67 -49 -145 l-49 -143 289 0 289 0 0 -1042 0
-1043 -629 2 c-492 2 -631 0 -639 -10 -12 -14 -92 -244 -92 -264 0 -11 155
-13 825 -13 l825 0 0 1330 0 1330 -385 0 c-212 0 -385 -1 -385 -2z"/>
<path d="M20260 5110 c-19 -19 -20 -33 -20 -512 0 -561 -1 -555 79 -634 67
-67 102 -74 376 -74 277 0 275 -1 275 90 0 89 -2 90 -248 90 -215 0 -249 6
-272 49 -5 11 -10 78 -10 149 0 108 3 132 17 143 12 11 71 15 242 19 l226 5 3
68 c2 42 -2 74 -9 83 -9 11 -53 14 -220 14 -114 0 -219 4 -233 10 l-26 10 0
149 c0 123 3 152 16 165 13 14 50 16 244 16 216 0 230 1 240 19 15 30 12 113
-6 139 -15 22 -16 22 -335 22 -306 0 -320 -1 -339 -20z"/>
<path d="M22160 5115 c-7 -9 -13 -42 -12 -77 0 -82 9 -88 133 -88 90 0 99 -2
113 -22 14 -20 16 -86 16 -519 l0 -496 25 -13 c38 -21 100 4 136 54 l29 39 0
456 c0 397 2 459 16 479 14 20 23 22 112 22 53 0 104 4 112 10 21 13 29 108
13 143 l-14 27 -333 0 c-286 0 -335 -2 -346 -15z"/>
<path d="M8095 4415 c-5 -2 -28 -9 -51 -14 -115 -30 -160 -148 -152 -398 4
-108 9 -151 26 -197 27 -73 44 -93 107 -122 106 -50 251 -20 308 64 65 94 72
436 11 557 -14 28 -39 60 -57 72 -44 29 -155 51 -192 38z m101 -132 c36 -39
39 -60 39 -253 0 -149 -3 -180 -18 -208 -23 -41 -55 -56 -102 -48 -56 11 -68
49 -73 227 -5 168 8 250 44 285 32 33 78 32 110 -3z"/>
<path d="M10070 4413 c-118 -20 -170 -80 -189 -216 -24 -174 -8 -368 37 -442
70 -114 277 -129 375 -27 53 55 67 122 67 312 0 195 -15 260 -73 317 -45 45
-138 69 -217 56z m112 -133 c38 -47 50 -331 18 -447 -14 -49 -50 -69 -106 -59
-30 6 -39 14 -56 52 -17 39 -19 66 -19 214 1 183 9 223 52 254 30 22 88 15
111 -14z"/>
<path d="M6330 4035 l0 -367 153 4 c203 7 243 23 296 123 26 49 26 53 26 250
l0 200 -29 51 c-16 28 -45 62 -64 75 -34 23 -45 24 -209 27 l-173 4 0 -367z
m277 240 c45 -30 57 -71 61 -205 5 -140 -7 -211 -42 -254 -20 -26 -31 -30 -84
-34 l-62 -4 0 254 c0 140 3 258 8 262 11 12 92 -2 119 -19z"/>
<path d="M6920 4035 l0 -366 73 3 72 3 2 363 2 362 -75 0 -74 0 0 -365z"/>
<path d="M7380 4340 l0 -60 80 0 80 0 0 -305 0 -305 70 0 70 0 0 305 0 305 80
0 80 0 0 60 0 60 -230 0 -230 0 0 -60z"/>
<path d="M8470 4035 l0 -365 75 0 75 0 0 155 0 155 54 0 c91 0 115 -39 116
-187 0 -39 4 -83 10 -97 9 -25 13 -26 85 -26 73 0 86 5 64 27 -6 6 -14 67 -18
135 -8 139 -20 172 -72 190 l-30 10 28 18 c46 28 62 54 73 111 21 111 -24 205
-110 229 -19 5 -106 10 -192 10 l-158 0 0 -365z m245 257 c78 -26 101 -119 45
-180 -17 -18 -32 -22 -80 -22 l-60 0 0 105 0 105 38 -1 c20 -1 46 -4 57 -7z"/>
<path d="M9050 4035 l0 -365 70 0 70 0 0 365 0 365 -70 0 -70 0 0 -365z"/>
<path d="M9300 4035 l0 -366 68 3 67 3 5 245 c3 170 8 234 14 210 5 -19 14
-48 21 -65 7 -16 28 -70 45 -120 59 -166 72 -200 87 -237 l16 -38 79 0 78 0 0
365 0 365 -65 0 -65 0 0 -242 c0 -133 -2 -239 -5 -236 -4 4 -60 156 -101 273
-7 22 -26 76 -42 120 l-30 80 -86 3 -86 3 0 -366z"/>
<path d="M24322 3771 c-11 -7 -12 -40 -6 -167 l7 -159 50 -2 50 -2 -7 156 c-4
85 -10 161 -13 169 -6 15 -60 19 -81 5z"/>
<path d="M21465 3746 c-61 -19 -155 -88 -155 -114 0 -6 -5 -12 -11 -14 -16 -5
-49 -116 -49 -168 0 -85 43 -180 105 -232 66 -55 114 -72 205 -72 73 0 92 4
138 27 143 74 207 232 155 383 -52 154 -228 240 -388 190z"/>
<path d="M24445 3593 c4 -93 11 -172 16 -177 12 -13 56 30 82 79 46 90 0 228
-86 259 -18 6 -18 -2 -12 -161z"/>
<path d="M24226 3713 c-67 -72 -69 -193 -4 -260 25 -26 35 -30 50 -22 14 8 18
22 18 73 0 101 -12 246 -21 246 -4 0 -24 -17 -43 -37z"/>
<path d="M22417 3493 c-10 -9 -9 -93 1 -93 4 -1 26 -5 50 -9 41 -8 42 -7 43
18 1 26 -2 75 -4 77 -9 6 -85 12 -90 7z"/>
<path d="M22313 3469 c-40 -19 -43 -24 -43 -60 0 -35 2 -39 18 -31 9 5 34 12
55 16 36 7 37 8 37 51 0 52 -6 54 -67 24z"/>
<path d="M22540 3422 c0 -51 3 -62 23 -75 12 -8 34 -27 50 -42 l27 -28 0 25
c0 14 3 40 6 57 6 27 2 36 -31 66 -20 19 -45 40 -56 45 -18 10 -19 7 -19 -48z"/>
<path d="M23313 3450 c-18 -7 -23 -17 -23 -47 0 -21 -3 -62 -7 -91 l-6 -53 54
5 c30 2 57 5 62 5 4 1 7 44 7 96 l0 95 -32 -1 c-18 0 -43 -4 -55 -9z"/>
<path d="M23430 3424 c0 -22 -3 -70 -7 -108 -4 -49 -3 -67 5 -62 13 8 63 -14
56 -25 -3 -5 4 -9 14 -9 27 0 32 18 32 121 0 98 1 96 -75 115 -23 6 -25 4 -25
-32z"/>
<path d="M23223 3388 c-38 -39 -63 -104 -63 -164 0 -52 12 -62 34 -30 8 14 24
27 35 31 23 7 34 61 29 143 l-3 53 -32 -33z"/>
<path d="M22218 3393 c-22 -25 -34 -52 -46 -98 -8 -32 -8 -36 1 -21 7 10 24
32 40 48 16 18 27 41 27 59 0 34 -2 35 -22 12z"/>
<path d="M23553 3288 c-9 -84 -8 -106 3 -119 7 -8 15 -26 17 -40 6 -37 30 -29
45 16 21 62 12 164 -18 209 -14 20 -27 36 -30 36 -3 0 -11 -46 -17 -102z"/>
<path d="M22666 3294 c-5 -46 -3 -153 4 -194 0 -3 7 6 15 20 19 33 19 176 1
209 -13 23 -14 22 -20 -35z"/>
<path d="M19516 3077 c-30 -45 -33 -142 -6 -205 38 -89 46 -85 59 34 11 98 11
108 -6 127 -13 15 -14 18 -3 13 11 -5 10 -4 -1 6 -9 7 -18 22 -21 33 -3 18 -5
17 -22 -8z"/>
<path d="M20430 3060 c-19 -44 -17 -147 2 -185 l15 -28 6 54 c3 30 2 86 -1
124 l-7 70 -15 -35z"/>
<path d="M19902 2983 c-30 -33 -33 -41 -39 -127 l-6 -91 28 25 c44 41 75 112
75 175 0 65 -10 68 -58 18z"/>
<path d="M19595 2928 c-4 -29 -5 -78 -3 -108 l3 -55 45 -16 45 -17 7 37 c4 20
7 63 7 96 l1 60 -49 28 -50 27 -6 -52z"/>
<path d="M19784 2933 c-61 -5 -64 -9 -64 -125 0 -69 2 -78 19 -78 16 0 81 19
90 26 4 4 14 184 10 182 -2 -1 -27 -3 -55 -5z"/>
<path d="M20942 2930 c2 -8 -3 -14 -10 -12 -8 1 -10 -2 -7 -8 4 -6 -2 -19 -13
-28 -22 -19 -41 -92 -24 -92 15 0 29 21 52 79 15 40 18 57 10 65 -8 8 -11 7
-8 -4z"/>
<path d="M20486 2894 c-10 -27 -6 -98 7 -114 7 -9 29 -26 50 -39 l37 -23 0 61
c0 42 -4 61 -13 61 -6 0 -26 15 -44 34 -24 27 -33 31 -37 20z"/>
<path d="M20826 2814 c-11 -8 -32 -14 -48 -14 -27 0 -28 -2 -28 -50 l0 -50 38
15 c53 22 64 37 60 78 -3 33 -4 35 -22 21z"/>
<path d="M20612 2757 l3 -52 53 -3 52 -3 0 46 c0 50 -1 51 -68 59 l-43 6 3
-53z"/>
<path d="M18633 2768 c-38 -27 -73 -101 -73 -155 1 -66 49 -146 103 -170 26
-12 27 -12 22 10 -4 13 -9 94 -13 180 l-7 157 -32 -22z"/>
<path d="M18845 2771 c3 -5 0 -11 -6 -13 -16 -5 -1 -308 16 -308 36 0 95 102
95 164 0 41 -30 115 -56 137 -22 19 -58 33 -49 20z"/>
<path d="M18705 2619 c9 -200 8 -199 53 -199 56 0 60 7 51 75 -4 33 -8 104 -8
158 l-1 97 -34 0 c-19 0 -42 3 -51 6 -16 6 -16 -5 -10 -137z"/>
<path d="M13720 2005 l0 -225 170 0 170 0 0 35 0 34 -127 3 -128 3 0 55 0 55
108 3 107 3 0 34 0 34 -107 3 -108 3 0 50 0 50 123 3 122 3 0 39 0 40 -165 0
-165 0 0 -225z"/>
<path d="M14140 2005 l0 -225 45 0 44 0 3 147 3 147 45 -63 c25 -34 54 -73 65
-86 11 -13 36 -45 55 -72 51 -70 55 -73 99 -73 l41 0 0 225 0 225 -40 0 -40 0
0 -150 c0 -82 -3 -150 -7 -150 -5 0 -26 25 -48 55 -22 30 -47 64 -55 75 -8 11
-28 38 -45 60 -16 23 -40 53 -52 67 -13 14 -23 30 -23 34 0 5 -20 9 -45 9
l-45 0 0 -225z"/>
<path d="M14650 2005 l0 -225 165 0 165 0 0 35 0 34 -122 3 -123 3 0 55 0 55
108 3 107 3 0 34 0 34 -107 3 -108 3 0 50 0 50 123 3 122 3 0 39 0 40 -165 0
-165 0 0 -225z"/>
<path d="M15070 2005 l0 -225 40 0 40 0 0 65 0 65 65 0 c36 0 65 -4 65 -10 0
-5 16 -34 35 -65 35 -54 36 -55 85 -55 l49 0 -44 65 c-25 36 -45 69 -45 75 0
5 9 15 20 23 31 22 60 86 60 132 0 54 -37 107 -93 134 -36 18 -62 21 -160 21
l-117 0 0 -225z m269 115 c28 -34 27 -75 -3 -105 -27 -27 -71 -38 -136 -33
l-45 3 -3 69 c-4 100 -5 99 87 95 70 -4 81 -7 100 -29z"/>
<path d="M15640 2208 c-97 -46 -140 -111 -140 -210 0 -46 6 -72 21 -98 63
-104 158 -144 278 -116 34 8 73 22 87 30 22 15 24 22 24 101 l0 85 -35 0 -35
0 0 -58 c0 -57 -1 -59 -35 -75 -104 -50 -215 23 -215 139 0 46 4 56 39 95 l39
44 70 0 c57 0 76 -4 100 -22 l29 -22 22 30 c12 16 19 34 15 40 -3 6 -30 22
-58 35 -67 31 -144 32 -206 2z"/>
<path d="M15960 2226 c0 -6 30 -70 40 -86 5 -8 34 -60 65 -116 52 -96 55 -104
55 -172 l0 -72 45 0 45 0 0 69 c0 72 11 105 69 206 29 50 68 124 83 158 6 15
2 17 -35 17 l-42 0 -59 -105 c-53 -96 -76 -124 -76 -94 0 7 -22 49 -50 95 -27
46 -50 88 -50 94 0 5 -20 10 -45 10 -25 0 -45 -2 -45 -4z"/>
<path d="M18878 2080 c-1 -5 -2 -104 0 -220 l3 -211 122 3 122 3 0 25 c0 25
-2 25 -95 30 l-95 5 0 60 0 60 85 5 c83 5 85 6 85 30 0 24 -2 25 -85 30 l-85
5 0 60 0 60 90 5 c88 5 90 6 90 30 l0 25 -117 3 c-72 2 -117 -1 -120 -8z"/>
<path d="M19214 2077 c-2 -7 -3 -105 -2 -217 l3 -205 25 0 25 0 3 158 c1 93 6
157 12 157 6 0 10 -3 10 -8 0 -4 17 -25 38 -47 21 -22 58 -65 82 -94 25 -30
54 -64 65 -76 11 -12 35 -38 52 -59 26 -29 38 -37 60 -34 l28 3 3 195 c3 231
1 242 -36 238 l-27 -3 -3 -157 c-1 -87 -6 -158 -10 -158 -4 0 -16 11 -27 25
-11 14 -34 39 -50 57 -17 18 -70 79 -119 136 -84 98 -119 121 -132 89z"/>
<path d="M19705 2078 c-3 -8 -4 -106 -3 -218 l3 -205 120 0 120 0 3 28 3 27
-95 0 -96 0 0 65 0 65 84 0 c87 0 98 5 88 43 -4 14 -17 17 -89 17 l-84 0 3 63
3 62 88 3 88 3 -3 27 -3 27 -113 3 c-85 2 -114 0 -117 -10z"/>
<path d="M20034 2077 c-2 -7 -3 -105 -2 -217 l3 -205 30 0 30 0 3 93 c3 91 3
92 28 92 30 0 69 -40 127 -127 36 -57 44 -63 74 -63 18 0 33 3 33 6 0 6 -84
133 -125 190 -6 9 -1 20 18 38 23 21 27 33 27 81 0 62 -17 86 -76 111 -43 18
-163 19 -170 1z m165 -68 c35 -33 26 -77 -21 -101 -22 -12 -46 -17 -58 -13
-17 6 -20 15 -20 71 l0 64 38 0 c25 0 46 -7 61 -21z"/>
<path d="M20550 2081 c-39 -12 -91 -41 -117 -65 -33 -31 -65 -128 -57 -174 28
-156 179 -227 362 -170 l33 10 -3 91 -3 92 -67 3 -68 3 0 -30 c0 -27 3 -30 38
-33 36 -3 37 -4 40 -44 3 -39 1 -42 -29 -48 -53 -10 -118 -7 -147 8 -104 54
-123 189 -37 265 52 45 131 50 243 15 21 -6 23 -4 20 22 -3 25 -10 31 -58 46
-59 18 -109 21 -150 9z"/>
<path d="M20850 2079 c0 -6 24 -41 52 -78 29 -36 57 -72 63 -79 5 -7 15 -19
22 -26 8 -9 13 -56 15 -127 l3 -114 25 0 c25 0 25 0 28 110 l3 110 74 97 c41
53 75 101 75 107 0 6 -13 11 -30 11 -24 0 -39 -12 -86 -70 -31 -39 -62 -69
-68 -67 -6 2 -33 33 -61 70 -43 58 -54 66 -82 67 -18 0 -33 -5 -33 -11z"/>
<path d="M21475 2076 c-49 -22 -70 -53 -70 -103 0 -41 4 -49 45 -84 25 -21 49
-39 53 -39 17 0 70 -46 78 -69 7 -17 5 -30 -6 -47 -20 -32 -90 -34 -128 -4
-35 27 -47 25 -47 -9 0 -36 13 -46 73 -62 67 -16 130 2 157 46 41 67 13 136
-75 188 -99 57 -118 96 -63 126 26 15 62 11 121 -14 14 -6 17 -2 17 23 0 26
-6 32 -40 46 -48 19 -75 20 -115 2z"/>
<path d="M21735 2078 c-3 -8 -4 -106 -3 -218 l3 -205 123 -3 122 -3 0 30 0 30
-92 3 -93 3 0 60 0 60 85 3 c86 3 101 10 93 43 -5 17 -15 19 -88 19 -91 0 -95
3 -95 65 0 63 3 65 102 65 l89 0 -3 28 -3 27 -118 3 c-89 2 -119 0 -122 -10z"/>
<path d="M22222 2076 c-102 -33 -154 -96 -160 -197 -5 -77 10 -113 69 -170 51
-49 122 -65 221 -51 80 12 100 25 96 61 -3 28 -4 28 -63 7 -51 -19 -126 -20
-169 -2 -70 29 -108 117 -82 192 30 90 110 124 232 99 38 -8 70 -15 72 -15 2
0 2 12 0 27 -2 20 -11 29 -41 39 -61 21 -128 25 -175 10z"/>
<path d="M22534 2065 c-3 -14 -5 -88 -2 -164 3 -132 5 -140 31 -178 15 -22 38
-45 51 -51 77 -35 201 -20 248 30 40 42 49 91 46 245 l-3 138 -27 3 c-16 2
-28 0 -28 -5 0 -4 -1 -77 -3 -160 -2 -149 -3 -153 -28 -179 -48 -47 -165 -45
-197 3 -14 22 -18 57 -22 182 l-5 156 -27 3 c-22 3 -29 -2 -34 -23z"/>
<path d="M22994 2077 c-2 -7 -3 -105 -2 -217 l3 -205 28 -3 c20 -3 27 1 28 15
0 10 1 52 2 93 2 73 3 75 29 78 33 4 71 -32 129 -122 35 -55 47 -66 70 -66 15
0 30 3 33 8 3 6 -54 97 -119 187 -6 10 -1 21 18 39 23 21 27 33 27 81 0 62
-17 86 -76 111 -43 18 -163 19 -170 1z m149 -58 c29 -16 37 -28 37 -60 0 -49
-98 -90 -119 -51 -12 23 -15 105 -4 115 10 11 62 8 86 -4z"/>
<path d="M23405 2078 c-3 -7 -4 -106 -3 -218 l3 -205 25 0 25 0 0 215 0 215
-23 3 c-12 2 -24 -3 -27 -10z"/>
<path d="M23550 2060 c0 -29 2 -30 44 -30 31 0 46 -5 50 -16 3 -9 6 -94 6
-190 l0 -175 28 3 27 3 5 185 5 185 43 3 c39 3 42 5 42 33 l0 29 -125 0 -125
0 0 -30z"/>
<path d="M23890 2080 c0 -6 33 -51 73 -100 l72 -90 5 -118 5 -117 30 0 30 0 3
115 3 115 42 56 c23 30 55 72 70 92 16 20 26 41 22 47 -12 20 -51 10 -75 -20
-14 -16 -37 -44 -52 -62 -16 -17 -28 -35 -28 -40 0 -15 -25 -8 -42 11 -9 11
-33 42 -54 70 -32 43 -43 51 -71 51 -18 0 -33 -5 -33 -10z"/>
<path d="M13893 1500 c-175 -35 -236 -271 -100 -386 47 -39 89 -54 156 -54 67
0 102 11 148 46 l31 24 -25 29 -25 29 -36 -24 c-39 -27 -112 -33 -156 -13 -40
19 -81 86 -81 134 0 75 70 145 146 145 36 0 100 -25 115 -45 10 -13 16 -10 37
19 l26 34 -32 25 c-18 13 -56 29 -85 36 -59 12 -60 12 -119 1z"/>
<path d="M14210 1280 l0 -220 165 0 165 0 0 35 0 35 -120 0 -120 0 0 55 0 55
105 0 105 0 0 40 0 40 -105 0 -105 0 0 55 0 55 120 0 120 0 0 35 0 35 -165 0
-165 0 0 -220z"/>
<path d="M14650 1280 l0 -220 40 0 40 0 0 151 0 151 37 -49 c20 -26 46 -60 57
-74 12 -14 28 -36 36 -49 16 -23 60 -82 85 -112 10 -12 29 -18 55 -18 l40 0 0
220 0 220 -40 0 -39 0 -3 -147 -3 -148 -37 50 c-21 28 -44 59 -52 70 -14 19
-75 96 -95 121 -4 5 -14 20 -20 32 -9 18 -21 22 -56 22 l-45 0 0 -220z"/>
<path d="M15110 1465 l0 -35 70 0 70 0 0 -185 0 -185 45 0 45 0 0 185 0 185
70 0 70 0 0 35 0 35 -185 0 -185 0 0 -35z"/>
<path d="M15550 1280 l0 -220 170 0 170 0 0 35 0 35 -125 0 -125 0 0 55 0 55
105 0 105 0 0 40 0 40 -105 0 -105 0 0 55 0 55 120 0 120 0 0 35 0 35 -165 0
-165 0 0 -220z"/>
<path d="M15990 1280 l0 -220 40 0 40 0 0 65 0 65 63 0 c52 0 64 -3 72 -20 60
-118 52 -110 106 -110 27 0 49 2 49 5 0 3 -15 27 -33 53 -59 83 -61 90 -34
103 31 14 67 85 67 130 0 48 -39 111 -80 131 -28 14 -61 18 -162 18 l-128 0 0
-220z m254 129 c20 -16 26 -29 26 -60 0 -63 -24 -79 -120 -79 l-80 0 0 80 0
80 74 0 c59 0 78 -4 100 -21z"/>
<path d="M23361 1482 c-325 -2 -427 -5 -433 -15 -10 -16 -10 -388 0 -405 7
-10 105 -12 458 -10 l449 3 0 209 0 210 -25 5 c-14 3 -216 5 -449 3z m-313
-200 l3 -112 39 -1 c62 -2 65 -3 68 -21 3 -16 -6 -18 -72 -18 l-76 0 0 136 c0
124 2 135 18 132 15 -3 17 -18 20 -116z m358 61 c14 -32 39 -86 55 -119 16
-34 29 -69 29 -78 0 -30 -30 -16 -47 22 -18 36 -19 37 -73 37 -44 0 -56 -4
-65 -20 -26 -50 -33 -58 -48 -52 -16 6 -11 25 43 142 5 11 19 44 31 73 12 28
28 52 36 52 8 0 25 -26 39 -57z m292 41 c36 -25 45 -51 29 -84 -14 -27 -13
-30 9 -51 38 -35 30 -80 -17 -104 -39 -21 -135 -20 -143 1 -8 21 -8 239 1 247
13 13 99 7 121 -9z"/>
<path d="M23352 1295 c-19 -42 -15 -55 18 -55 33 0 37 11 18 53 -16 33 -22 34
-36 2z"/>
<path d="M23620 1321 c0 -33 4 -41 18 -41 30 0 54 24 50 51 -2 19 -10 25 -35
27 -32 3 -33 2 -33 -37z"/>
<path d="M23627 1244 c-4 -4 -7 -22 -7 -41 0 -32 1 -33 40 -33 34 0 40 3 46
26 4 14 2 30 -3 35 -12 12 -67 22 -76 13z"/>
<path d="M19204 1465 c-9 -24 5 -35 45 -35 20 0 42 -5 49 -12 8 -8 12 -65 12
-191 l0 -178 28 3 27 3 5 185 5 185 43 3 c37 3 42 6 42 28 l0 24 -125 0 c-101
0 -127 -3 -131 -15z"/>
<path d="M19548 1275 c-2 -113 -1 -210 0 -215 5 -15 62 -12 63 3 1 6 0 45 -1
86 -2 79 4 91 46 83 26 -5 71 -55 120 -134 25 -42 33 -48 63 -48 26 0 32 3 27
16 -10 25 -77 127 -104 156 l-24 27 27 25 c19 18 29 38 32 68 11 98 -37 138
-164 138 l-82 0 -3 -205z m164 139 c5 -3 13 -17 19 -31 12 -31 -11 -78 -43
-87 -63 -17 -78 -4 -78 64 0 64 7 73 53 66 22 -4 44 -9 49 -12z"/>
<path d="M20066 1368 c-27 -62 -68 -157 -91 -210 -23 -53 -40 -100 -37 -103 3
-3 17 -5 32 -5 23 0 30 7 45 46 29 75 43 84 134 84 l80 0 31 -66 c28 -59 33
-65 58 -62 15 2 26 8 25 14 -3 13 -100 236 -149 342 -28 58 -39 72 -57 72 -19
0 -29 -17 -71 -112z m104 -60 c16 -34 27 -65 24 -70 -8 -12 -102 -10 -110 3
-3 6 -1 16 5 22 6 6 11 16 11 23 0 16 29 84 36 84 2 0 18 -28 34 -62z"/>
<path d="M20432 1268 l3 -213 28 -3 27 -3 0 155 c0 88 4 156 9 156 5 0 45 -41
88 -91 43 -51 90 -104 104 -120 15 -15 39 -44 54 -64 23 -30 34 -36 59 -33
l31 3 0 210 0 210 -30 0 -30 0 -3 -159 -3 -158 -22 23 c-39 41 -171 192 -216
247 -34 41 -49 52 -72 52 l-29 0 2 -212z"/>
<path d="M20968 1462 c-32 -20 -48 -51 -48 -96 0 -43 28 -78 93 -115 30 -17
61 -39 71 -50 21 -23 24 -67 7 -84 -20 -20 -93 -14 -127 10 -36 25 -44 22 -44
-19 0 -32 25 -47 96 -55 95 -12 151 38 141 124 -5 43 -45 102 -71 104 -6 0
-31 15 -56 33 -57 42 -65 78 -22 100 27 14 36 14 79 1 63 -19 63 -19 63 10 0
50 -120 74 -182 37z"/>
<path d="M21250 1265 l0 -215 30 0 30 0 0 215 0 215 -30 0 -30 0 0 -215z"/>
<path d="M21400 1455 c0 -22 4 -25 33 -25 56 0 56 -1 59 -195 l3 -180 30 0 30
0 5 185 5 185 45 5 c37 4 45 9 45 25 0 19 -8 20 -127 23 l-128 3 0 -26z"/>
<path d="M21740 1265 l0 -215 30 0 30 0 0 215 0 215 -30 0 -30 0 0 -215z"/>
<path d="M22030 1469 c-46 -18 -99 -61 -121 -98 -32 -52 -32 -162 -1 -213 94
-151 351 -142 423 16 51 111 -7 251 -120 291 -49 17 -143 19 -181 4z m151 -59
c19 -5 48 -23 64 -40 23 -24 30 -41 33 -88 5 -70 -11 -108 -64 -148 -47 -37
-133 -39 -188 -5 -67 42 -95 136 -60 204 39 74 120 103 215 77z"/>
<path d="M22440 1265 l0 -215 25 0 c14 0 25 6 26 13 0 6 1 75 2 152 1 90 6
140 12 140 6 0 37 -31 70 -70 32 -38 65 -77 74 -86 9 -9 42 -46 75 -83 47 -52
65 -66 87 -66 l29 0 0 215 0 215 -30 0 -30 0 0 -153 c0 -85 -3 -157 -7 -160
-7 -7 -22 8 -102 104 -30 35 -61 71 -70 79 -9 9 -38 41 -64 73 -35 40 -56 57
-73 57 l-24 0 0 -215z"/>
</g>
</svg>
